<svg xmlns="http://www.w3.org/2000/svg" id="Art" width="91" height="150" viewBox="0 0 42.5 70.15"><defs><style>.cls-2{fill:#fff}.cls-3{fill:none}.cls-4{fill:#033849}.cls-5{fill:#023748}.cls-6{fill:#134453}.cls-7{fill:#154656}.cls-8{fill:#083b4c}.cls-9{fill:#05394a}.cls-10{fill:#275463}.cls-11{fill:#2a5664}.cls-12{fill:#3a626f}.cls-13{fill:#36606d}.cls-14{fill:#466c79}.cls-15{fill:#4a707c}.cls-16{fill:#587a86}.cls-17{fill:#5d7e89}.cls-18{fill:#5c7e89}.cls-19{fill:#5f808b}.cls-20{fill:#4d727e}.cls-21{fill:#557884}.cls-22{fill:#1a4a59}.cls-23{fill:#0e4051}.cls-24{fill:#204f5c}.cls-25{fill:#2f5a68}.cls-26{fill:#3a6370}.cls-27{fill:#4e737f}.cls-28{fill:#63848e}.cls-29{fill:#6b8a94}.cls-30{fill:#0d4050}.cls-31{fill:#093c4d}.cls-32{fill:#083c4c}.cls-33{fill:#0a3d4e}.cls-34{fill:#91a8af}.cls-35{fill:#97adb4}.cls-36{fill:#94aab1}.cls-37{fill:#99aeb5}.cls-38{fill:#829ca5}.cls-39{fill:#527782}.cls-40{fill:#6f8d97}.cls-41{fill:#869fa7}.cls-42{fill:#708e98}.cls-43{fill:#0c3f4f}.cls-44{fill:#083a4b}.cls-45{fill:#22505f}.cls-46{fill:#134454}.cls-47{fill:#9db1b8}.cls-48{fill:#9bb0b7}.cls-49{fill:#98adb4}.cls-50{fill:#9cb1b7}.cls-51{fill:#93aab1}.cls-52{fill:#8ea6ad}.cls-53{fill:#7b97a0}.cls-54{fill:#9aafb6}.cls-55{fill:#96acb3}.cls-56{fill:#073b4c}.cls-57{fill:#164756}.cls-58{fill:#214f5e}.cls-59{fill:#1e4d5c}.cls-60{fill:#3e6673}.cls-61{fill:#2c5866}.cls-62{fill:#416976}.cls-63{fill:#577a86}.cls-64{fill:#8da5ac}.cls-65{fill:#89a2aa}.cls-66{fill:#90a7af}.cls-67{fill:#7e99a2}.cls-68{fill:#78949d}.cls-69{fill:#144555}.cls-70{fill:#2a5665}.cls-71{fill:#295664}.cls-72{fill:#658590}.cls-73{fill:#043949}.cls-74{fill:#aebfc4}.cls-75{fill:#d2dcdf}.cls-76{fill:#c7d3d7}.cls-77{fill:#f1f4f5}.cls-78{fill:#7f9aa2}.cls-79{fill:#4f7480}.cls-80{fill:#3f6774}.cls-81{fill:#74919b}.cls-82{fill:#60828c}.cls-83{fill:#063a4b}.cls-84{fill:#3d6572}.cls-85{fill:#fcfdfd}.cls-86{fill:#ecf0f1}.cls-87{fill:#f6f8f9}.cls-88{fill:#f9fafb}.cls-89{fill:#d0dadd}.cls-90{fill:#dbe3e5}.cls-91{fill:#dae2e4}.cls-92{fill:#c3d0d4}.cls-93{fill:#b3c3c8}</style></defs><path class="cls-3" d="M5.21 16.61l2.41.21 2.75.25-5.16-.46z"/><path class="cls-4" d="M32.09 55.98v3.94l2.58.89v-3.99l-2.58-.84z"/><path class="cls-5" d="M34.67 56.82v3.99l2.68.93v-4.05l-2.68-.87z"/><path class="cls-6" d="M37.35 49.45l-2.68-.66v4.01l2.68.75v-4.1z"/><path class="cls-7" d="M34.67 48.79l-2.58-.63v3.91l2.58.73v-4.01z"/><path class="cls-8" d="M34.67 52.8l-2.58-.73v3.91l2.58.84V52.8z"/><path class="cls-9" d="M37.35 53.55l-2.68-.75v4.02l2.68.87V53.55z"/><path class="cls-10" d="M37.35 49.43v-4.09l-2.68-.56v4.01l2.68.66v-.02z"/><path class="cls-11" d="M34.67 44.78l-2.58-.53v3.91l2.58.63v-4.01z"/><path class="cls-12" d="M34.67 40.77l-2.58-.43v3.91l2.58.53v-4.01z"/><path class="cls-13" d="M37.35 45.32v-4.11l-2.68-.44v4.01l2.68.56v-.02z"/><path class="cls-14" d="M34.67 36.78l-2.58-.33v3.89l2.58.43v-3.99z"/><path class="cls-15" d="M37.35 37.13l-2.68-.35v3.99l2.68.44v-4.08z"/><path class="cls-16" d="M34.67 28.76l-2.58-.14v3.9l2.58.24v-4z"/><path class="cls-17" d="M37.35 28.9l-2.68-.14v4l2.68.24v-4.1z"/><path class="cls-18" d="M34.67 24.75l-2.58-.05v3.92l2.58.14v-4.01z"/><path class="cls-19" d="M34.67 28.76l2.68.14V18.71c0-2.91-1.55-6.05-4.13-6.45l-.74-.1a3.45 3.45 0 00-2.83 1.67c1.64.66 2.44 2.47 2.44 5.21v5.66l2.58.05z"/><path class="cls-20" d="M34.67 32.76l-2.58-.24v3.93l2.58.33v-4.02z"/><path class="cls-21" d="M37.35 37.12V33l-2.68-.24v4.02l2.68.35v-.01z"/><path class="cls-22" d="M37.35 49.43V53.55l2.51-1.01v-3.99l-2.51.88z"/><path class="cls-23" d="M39.86 52.54l2.43-.99v-3.84l-2.43.84v3.99z"/><path class="cls-24" d="M39.86 48.55l2.43-.84v-3.85l-2.42.71-.01 3.98z"/><path class="cls-25" d="M37.35 45.32V49.43l2.51-.88.01-3.98-2.52.75z"/><path class="cls-26" d="M39.87 44.57l2.42-.71v-3.84l-2.41.58-.01 3.97z"/><path class="cls-27" d="M37.35 41.21v4.11l2.52-.75.01-3.97-2.53.61z"/><path class="cls-28" d="M39.88 40.6l2.41-.58V36.2l-2.41.45v3.95z"/><path class="cls-29" d="M37.35 37.12v4.09l2.53-.61v-3.95l-2.53.47z"/><path class="cls-30" d="M39.84 60.44l2.45-1.27v-3.81l-2.44 1.13-.01 3.95z"/><path class="cls-31" d="M37.35 57.66v4.08l2.49-1.3.01-3.95-2.5 1.17z"/><path class="cls-32" d="M24.99 68.16l3.47-1.81v-4.57L25 63.4l-.01 4.76z"/><path class="cls-33" d="M21.15 65.18L17.3 63.4v4.76l3.85 1.99 3.84-1.99.01-4.76-3.85 1.78z"/><path class="cls-34" d="M25.04 39.39l3.42-.63v-4.63l-3.41.43-.01 4.83z"/><path class="cls-35" d="M21.15 40.11l3.89-.72.01-4.83-3.9.49v5.06z"/><path class="cls-36" d="M25.05 34.56l3.41-.43v-4.58l-3.41.25v4.76z"/><path class="cls-37" d="M21.15 35.05l3.9-.49V29.8l-3.9.29v4.96z"/><path class="cls-38" d="M25.03 44.17l3.43-.83v-4.58l-3.42.63-.01 4.78z"/><path class="cls-34" d="M21.15 45.1l3.88-.93.01-4.78-3.89.72v4.99z"/><path class="cls-39" d="M25.01 53.74l3.45-1.21v-4.58l-3.44 1.02-.01 4.77z"/><path class="cls-40" d="M21.15 55.09l3.86-1.35.01-4.77-3.87 1.14v4.98z"/><path class="cls-41" d="M21.15 50.11l3.87-1.14.01-4.8-3.88.93v5.01z"/><path class="cls-42" d="M25.02 48.97l3.44-1.02v-4.61l-3.43.83-.01 4.8z"/><path class="cls-43" d="M37.35 53.55v4.11l2.5-1.17.01-3.95-2.51 1.01z"/><path class="cls-44" d="M39.85 56.49l2.44-1.13v-3.81l-2.43.99-.01 3.95z"/><path class="cls-26" d="M21.15 60.12L25 58.55l.01-4.81-3.86 1.35v5.03z"/><path class="cls-45" d="M25 58.55l3.46-1.4v-4.62l-3.45 1.21-.01 4.81z"/><path class="cls-46" d="M21.15 60.12l-3.86-1.57.01 4.85 3.85 1.78L25 63.4l3.46-1.62v-4.63L25 58.55l-3.85 1.57z"/><path class="cls-47" d="M21.15 0v20l3.92.16 3.39.14v-2.15a7.66 7.66 0 011.19-4.32 3.45 3.45 0 012.83-1.67l.74.1c2.58.4 4.13 3.54 4.13 6.45v2l2.56.11v4h2.39V5.55z"/><path class="cls-48" d="M25.05 29.8l.01-4.78-3.91.07v5l3.9-.29z"/><path class="cls-49" d="M25.05 29.8l3.41-.25v-4.6l-3.4.07-.01 4.78z"/><path class="cls-50" d="M39.91 24.74v-3.96l-2.56-.11v4.12l2.56-.05z"/><path class="cls-51" d="M37.35 33v.01l2.54-.32.01-3.99-2.55.19V33z"/><path class="cls-52" d="M39.89 32.69l2.4-.31v-3.86l-2.39.18-.01 3.99z"/><path class="cls-48" d="M37.35 24.79v4.1l2.55-.19 2.39-.18v-3.83l-2.38.05-2.56.05z"/><path class="cls-50" d="M21.15 20v5.09l3.91-.07 3.4-.07V20.3l-3.39-.14-3.92-.16z"/><path class="cls-53" d="M39.88 36.65l2.41-.45v-3.82l-2.4.31-.01 3.96z"/><path class="cls-41" d="M37.35 33.01v4.11l2.53-.47.01-3.96-2.54.32z"/><path class="cls-54" d="M9.81 12.16l-.74.1c-2 .31-3.32 2.19-3.86 4.35l5.16.46a4 4 0 012.27-3.24 3.45 3.45 0 00-2.83-1.67z"/><path class="cls-55" d="M4.95 24.79l2.67-.04v-4l-2.67-.08v4.12z"/><path class="cls-37" d="M7.62 24.75l2.59-.05v-3.86l-2.59-.09v4z"/><path class="cls-54" d="M7.62 20.75l2.59.08V19a10.76 10.76 0 01.16-2l-2.75-.25z"/><path class="cls-37" d="M7.62 16.82l-2.41-.21a8.75 8.75 0 00-.21 2.1v2l2.67.08z"/><path class="cls-56" d="M4.95 57.69v4.05l2.67-.93 2.59-.89v-3.94l-2.59.84-2.67.87z"/><path class="cls-57" d="M4.95 53.55l2.67-.75v-4.01l-2.67.66v4.1z"/><path class="cls-7" d="M7.62 52.8l2.59-.73v-3.91l-2.59.63v4.01z"/><path class="cls-33" d="M4.95 53.55V57.69l2.67-.87 2.59-.84v-3.91l-2.59.73-2.67.75z"/><path class="cls-58" d="M4.95 49.43v.02l2.67-.66v-4.01l-2.67.56v4.09z"/><path class="cls-59" d="M7.62 48.79l2.59-.63v-3.91l-2.59.53v4.01z"/><path class="cls-60" d="M7.62 44.78l2.59-.53v-3.91l-2.59.43v4.01z"/><path class="cls-61" d="M4.95 41.21v4.13l2.67-.56v-4.01l-2.67.44z"/><path class="cls-62" d="M7.62 40.77l2.59-.43v-3.89l-2.59.33v3.99z"/><path class="cls-63" d="M4.95 41.21l2.67-.44v-3.99l-2.67.35v4.08z"/><path class="cls-64" d="M7.62 32.76l2.59-.24v-3.9l-2.59.14v4z"/><path class="cls-65" d="M4.95 33l2.67-.24v-4l-2.67.14V33z"/><path class="cls-36" d="M7.62 28.76l2.59-.14V24.7l-2.59.05v4.01z"/><path class="cls-66" d="M4.95 28.89v.01l2.67-.14v-4.01l-2.67.04v4.1z"/><path class="cls-67" d="M7.62 36.78l2.59-.33v-3.93l-2.59.24v4.02z"/><path class="cls-68" d="M4.95 33.01v4.12l2.67-.35v-4.02L4.95 33v.01z"/><path class="cls-43" d="M4.95 49.43l-2.52-.88.01 3.99 2.51 1.01V49.43z"/><path class="cls-69" d="M2.43 48.55L0 47.71v3.84l2.44.99-.01-3.99z"/><path class="cls-70" d="M2.42 44.57L0 43.86v3.85l2.43.84-.01-3.98z"/><path class="cls-71" d="M4.95 49.43V45.32l-2.53-.75.01 3.98 2.52.88z"/><path class="cls-72" d="M2.41 40.6L0 40.02v3.84l2.42.71-.01-3.97z"/><path class="cls-63" d="M4.95 45.32v-4.11l-2.54-.61.01 3.97 2.53.75z"/><path class="cls-55" d="M2.41 36.65L0 36.2v3.82l2.41.58v-3.95z"/><path class="cls-41" d="M4.95 41.21v-4.09l-2.54-.47v3.95l2.54.61z"/><path class="cls-30" d="M0 55.36v3.81l2.45 1.27-.01-3.95L0 55.36z"/><path class="cls-4" d="M4.95 57.66l-2.51-1.17.01 3.95 2.5 1.3v-4.08z"/><path class="cls-73" d="M13.83 61.78v4.57l3.47 1.81V63.4l-3.47-1.62z"/><path class="cls-74" d="M17.25 34.56l-3.42-.43v4.63l3.42.63v-4.83z"/><path class="cls-75" d="M21.15 35.05l-3.9-.49v4.83l3.9.72v-5.06z"/><path class="cls-76" d="M17.24 29.8l-3.41-.25v4.58l3.42.43-.01-4.76z"/><path class="cls-77" d="M21.15 30.09l-3.91-.29.01 4.76 3.9.49v-4.96z"/><path class="cls-78" d="M17.25 39.39l-3.42-.63v4.58l3.43.83-.01-4.78z"/><path class="cls-47" d="M21.15 40.11l-3.9-.72.01 4.78 3.89.93v-4.99z"/><path class="cls-79" d="M17.27 48.97l-3.44-1.02v4.58l3.45 1.21-.01-4.77z"/><path class="cls-80" d="M21.15 50.11l-3.88-1.14.01 4.77 3.87 1.35v-4.98z"/><path class="cls-81" d="M21.15 45.1l-3.89-.93.01 4.8 3.88 1.14V45.1z"/><path class="cls-82" d="M17.26 44.17l-3.43-.83v4.61l3.44 1.02-.01-4.8z"/><path class="cls-83" d="M2.44 52.54v3.95l2.51 1.17v-4.11l-2.51-1.01z"/><path class="cls-31" d="M2.44 52.54L0 51.55v3.81l2.44 1.13v-3.95z"/><path class="cls-7" d="M17.28 53.74l.01 4.81 3.86 1.57v-5.03l-3.87-1.35z"/><path class="cls-84" d="M17.28 53.74l-3.45-1.21v4.62l3.46 1.4-.01-4.81z"/><path class="cls-7" d="M17.29 58.55l-3.46-1.4v4.63l3.47 1.62-.01-4.85z"/><path class="cls-85" d="M17.24 29.8l3.91.29v-5l-3.92-.07.01 4.78z"/><path class="cls-86" d="M17.23 25.02l-3.4-.07v4.6l3.41.25-.01-4.78z"/><path class="cls-87" d="M2.38 20.78l-2.38.1v3.81l2.39.05-.01-3.96z"/><path class="cls-88" d="M4.95 24.79v-4.12l-2.57.11.01 3.96 2.56.05z"/><path class="cls-89" d="M4.95 33.01V28.89l-2.56-.19L0 28.52v3.86l2.4.31 2.55.32z"/><path class="cls-90" d="M4.95 24.79l-2.56-.05v3.96l2.56.19v-4.1z"/><path class="cls-91" d="M2.39 24.74L0 24.69v3.83l2.39.18v-3.96z"/><path class="cls-85" d="M17.22 20.16l-3.39.14v4.65l3.4.07-.01-4.86z"/><path class="cls-2" d="M17.23 25l3.92.08V0L0 5.55v15.33l2.38-.1L5 20.67v-2a8.75 8.75 0 01.26-2.1c.54-2.16 1.9-4 3.86-4.35l.74-.1a3.45 3.45 0 012.83 1.67 7.66 7.66 0 011.19 4.32v2.19l3.39-.14z"/><path class="cls-92" d="M2.4 32.69L0 32.38v3.82l2.41.45-.01-3.96z"/><path class="cls-93" d="M4.95 37.12v-4.11l-2.55-.32.01 3.96 2.54.47z"/><path class="cls-3" d="M5.21 16.61l2.41.21 2.75.25-5.16-.46z"/><path class="cls-4" d="M32.09 55.98v3.94l2.58.89v-3.99l-2.58-.84z"/><path class="cls-5" d="M34.67 56.82v3.99l2.68.93v-4.05l-2.68-.87z"/><path class="cls-6" d="M37.35 49.45l-2.68-.66v4.01l2.68.75v-4.1z"/><path class="cls-7" d="M34.67 48.79l-2.58-.63v3.91l2.58.73v-4.01z"/><path class="cls-8" d="M34.67 52.8l-2.58-.73v3.91l2.58.84V52.8z"/><path class="cls-9" d="M37.35 53.55l-2.68-.75v4.02l2.68.87V53.55z"/><path class="cls-10" d="M37.35 49.43v-4.09l-2.68-.56v4.01l2.68.66v-.02z"/><path class="cls-11" d="M34.67 44.78l-2.58-.53v3.91l2.58.63v-4.01z"/><path class="cls-12" d="M34.67 40.77l-2.58-.43v3.91l2.58.53v-4.01z"/><path class="cls-13" d="M37.35 45.32v-4.11l-2.68-.44v4.01l2.68.56v-.02z"/><path class="cls-14" d="M34.67 36.78l-2.58-.33v3.89l2.58.43v-3.99z"/><path class="cls-15" d="M37.35 37.13l-2.68-.35v3.99l2.68.44v-4.08z"/><path class="cls-16" d="M34.67 28.76l-2.58-.14v3.9l2.58.24v-4z"/><path class="cls-17" d="M37.35 28.9l-2.68-.14v4l2.68.24v-4.1z"/><path class="cls-18" d="M34.67 24.75l-2.58-.05v3.92l2.58.14v-4.01z"/><path class="cls-19" d="M34.67 28.76l2.68.14V18.71c0-2.91-1.55-6.05-4.13-6.45l-.74-.1a3.45 3.45 0 00-2.83 1.67c1.64.66 2.44 2.47 2.44 5.21v5.66l2.58.05z"/><path class="cls-20" d="M34.67 32.76l-2.58-.24v3.93l2.58.33v-4.02z"/><path class="cls-21" d="M37.35 37.12V33l-2.68-.24v4.02l2.68.35v-.01z"/><path class="cls-22" d="M37.35 49.43V53.55l2.51-1.01v-3.99l-2.51.88z"/><path class="cls-23" d="M39.86 52.54l2.43-.99v-3.84l-2.43.84v3.99z"/><path class="cls-24" d="M39.86 48.55l2.43-.84v-3.85l-2.42.71-.01 3.98z"/><path class="cls-25" d="M37.35 45.32V49.43l2.51-.88.01-3.98-2.52.75z"/><path class="cls-26" d="M39.87 44.57l2.42-.71v-3.84l-2.41.58-.01 3.97z"/><path class="cls-27" d="M37.35 41.21v4.11l2.52-.75.01-3.97-2.53.61z"/><path class="cls-28" d="M39.88 40.6l2.41-.58V36.2l-2.41.45v3.95z"/><path class="cls-29" d="M37.35 37.12v4.09l2.53-.61v-3.95l-2.53.47z"/><path class="cls-30" d="M39.84 60.44l2.45-1.27v-3.81l-2.44 1.13-.01 3.95z"/><path class="cls-31" d="M37.35 57.66v4.08l2.49-1.3.01-3.95-2.5 1.17z"/><path class="cls-32" d="M24.99 68.16l3.47-1.81v-4.57L25 63.4l-.01 4.76z"/><path class="cls-33" d="M21.15 65.18L17.3 63.4v4.76l3.85 1.99 3.84-1.99.01-4.76-3.85 1.78z"/><path class="cls-34" d="M25.04 39.39l3.42-.63v-4.63l-3.41.43-.01 4.83z"/><path class="cls-35" d="M21.15 40.11l3.89-.72.01-4.83-3.9.49v5.06z"/><path class="cls-36" d="M25.05 34.56l3.41-.43v-4.58l-3.41.25v4.76z"/><path class="cls-37" d="M21.15 35.05l3.9-.49V29.8l-3.9.29v4.96z"/><path class="cls-38" d="M25.03 44.17l3.43-.83v-4.58l-3.42.63-.01 4.78z"/><path class="cls-34" d="M21.15 45.1l3.88-.93.01-4.78-3.89.72v4.99z"/><path class="cls-39" d="M25.01 53.74l3.45-1.21v-4.58l-3.44 1.02-.01 4.77z"/><path class="cls-40" d="M21.15 55.09l3.86-1.35.01-4.77-3.87 1.14v4.98z"/><path class="cls-41" d="M21.15 50.11l3.87-1.14.01-4.8-3.88.93v5.01z"/><path class="cls-42" d="M25.02 48.97l3.44-1.02v-4.61l-3.43.83-.01 4.8z"/><path class="cls-43" d="M37.35 53.55v4.11l2.5-1.17.01-3.95-2.51 1.01z"/><path class="cls-44" d="M39.85 56.49l2.44-1.13v-3.81l-2.43.99-.01 3.95z"/><path class="cls-26" d="M21.15 60.12L25 58.55l.01-4.81-3.86 1.35v5.03z"/><path class="cls-45" d="M25 58.55l3.46-1.4v-4.62l-3.45 1.21-.01 4.81z"/><path class="cls-46" d="M21.15 60.12l-3.86-1.57.01 4.85 3.85 1.78L25 63.4l3.46-1.62v-4.63L25 58.55l-3.85 1.57z"/><path class="cls-47" d="M21.15 0v20l3.92.16 3.39.14v-2.15a7.66 7.66 0 011.19-4.32 3.45 3.45 0 012.83-1.67l.74.1c2.58.4 4.13 3.54 4.13 6.45v2l2.56.11v4h2.39V5.55z"/><path class="cls-48" d="M25.05 29.8l.01-4.78-3.91.07v5l3.9-.29z"/><path class="cls-49" d="M25.05 29.8l3.41-.25v-4.6l-3.4.07-.01 4.78z"/><path class="cls-50" d="M39.91 24.74v-3.96l-2.56-.11v4.12l2.56-.05z"/><path class="cls-51" d="M37.35 33v.01l2.54-.32.01-3.99-2.55.19V33z"/><path class="cls-52" d="M39.89 32.69l2.4-.31v-3.86l-2.39.18-.01 3.99z"/><path class="cls-48" d="M37.35 24.79v4.1l2.55-.19 2.39-.18v-3.83l-2.38.05-2.56.05z"/><path class="cls-50" d="M21.15 20v5.09l3.91-.07 3.4-.07V20.3l-3.39-.14-3.92-.16z"/><path class="cls-53" d="M39.88 36.65l2.41-.45v-3.82l-2.4.31-.01 3.96z"/><path class="cls-41" d="M37.35 33.01v4.11l2.53-.47.01-3.96-2.54.32z"/><path class="cls-54" d="M9.81 12.16l-.74.1c-2 .31-3.32 2.19-3.86 4.35l5.16.46a4 4 0 012.27-3.24 3.45 3.45 0 00-2.83-1.67z"/><path class="cls-55" d="M4.95 24.79l2.67-.04v-4l-2.67-.08v4.12z"/><path class="cls-37" d="M7.62 24.75l2.59-.05v-3.86l-2.59-.09v4z"/><path class="cls-54" d="M7.62 20.75l2.59.08V19a10.76 10.76 0 01.16-2l-2.75-.25z"/><path class="cls-37" d="M7.62 16.82l-2.41-.21a8.75 8.75 0 00-.21 2.1v2l2.67.08z"/><path class="cls-56" d="M4.95 57.69v4.05l2.67-.93 2.59-.89v-3.94l-2.59.84-2.67.87z"/><path class="cls-57" d="M4.95 53.55l2.67-.75v-4.01l-2.67.66v4.1z"/><path class="cls-7" d="M7.62 52.8l2.59-.73v-3.91l-2.59.63v4.01z"/><path class="cls-33" d="M4.95 53.55V57.69l2.67-.87 2.59-.84v-3.91l-2.59.73-2.67.75z"/><path class="cls-58" d="M4.95 49.43v.02l2.67-.66v-4.01l-2.67.56v4.09z"/><path class="cls-59" d="M7.62 48.79l2.59-.63v-3.91l-2.59.53v4.01z"/><path class="cls-60" d="M7.62 44.78l2.59-.53v-3.91l-2.59.43v4.01z"/><path class="cls-61" d="M4.95 41.21v4.13l2.67-.56v-4.01l-2.67.44z"/><path class="cls-62" d="M7.62 40.77l2.59-.43v-3.89l-2.59.33v3.99z"/><path class="cls-63" d="M4.95 41.21l2.67-.44v-3.99l-2.67.35v4.08z"/><path class="cls-64" d="M7.62 32.76l2.59-.24v-3.9l-2.59.14v4z"/><path class="cls-65" d="M4.95 33l2.67-.24v-4l-2.67.14V33z"/><path class="cls-36" d="M7.62 28.76l2.59-.14V24.7l-2.59.05v4.01z"/><path class="cls-66" d="M4.95 28.89v.01l2.67-.14v-4.01l-2.67.04v4.1z"/><path class="cls-67" d="M7.62 36.78l2.59-.33v-3.93l-2.59.24v4.02z"/><path class="cls-68" d="M4.95 33.01v4.12l2.67-.35v-4.02L4.95 33v.01z"/><path class="cls-43" d="M4.95 49.43l-2.52-.88.01 3.99 2.51 1.01V49.43z"/><path class="cls-69" d="M2.43 48.55L0 47.71v3.84l2.44.99-.01-3.99z"/><path class="cls-70" d="M2.42 44.57L0 43.86v3.85l2.43.84-.01-3.98z"/><path class="cls-71" d="M4.95 49.43V45.32l-2.53-.75.01 3.98 2.52.88z"/><path class="cls-72" d="M2.41 40.6L0 40.02v3.84l2.42.71-.01-3.97z"/><path class="cls-63" d="M4.95 45.32v-4.11l-2.54-.61.01 3.97 2.53.75z"/><path class="cls-55" d="M2.41 36.65L0 36.2v3.82l2.41.58v-3.95z"/><path class="cls-41" d="M4.95 41.21v-4.09l-2.54-.47v3.95l2.54.61z"/><path class="cls-30" d="M0 55.36v3.81l2.45 1.27-.01-3.95L0 55.36z"/><path class="cls-4" d="M4.95 57.66l-2.51-1.17.01 3.95 2.5 1.3v-4.08z"/><path class="cls-73" d="M13.83 61.78v4.57l3.47 1.81V63.4l-3.47-1.62z"/><path class="cls-74" d="M17.25 34.56l-3.42-.43v4.63l3.42.63v-4.83z"/><path class="cls-75" d="M21.15 35.05l-3.9-.49v4.83l3.9.72v-5.06z"/><path class="cls-76" d="M17.24 29.8l-3.41-.25v4.58l3.42.43-.01-4.76z"/><path class="cls-77" d="M21.15 30.09l-3.91-.29.01 4.76 3.9.49v-4.96z"/><path class="cls-78" d="M17.25 39.39l-3.42-.63v4.58l3.43.83-.01-4.78z"/><path class="cls-47" d="M21.15 40.11l-3.9-.72.01 4.78 3.89.93v-4.99z"/><path class="cls-79" d="M17.27 48.97l-3.44-1.02v4.58l3.45 1.21-.01-4.77z"/><path class="cls-80" d="M21.15 50.11l-3.88-1.14.01 4.77 3.87 1.35v-4.98z"/><path class="cls-81" d="M21.15 45.1l-3.89-.93.01 4.8 3.88 1.14V45.1z"/><path class="cls-82" d="M17.26 44.17l-3.43-.83v4.61l3.44 1.02-.01-4.8z"/><path class="cls-83" d="M2.44 52.54v3.95l2.51 1.17v-4.11l-2.51-1.01z"/><path class="cls-31" d="M2.44 52.54L0 51.55v3.81l2.44 1.13v-3.95z"/><path class="cls-7" d="M17.28 53.74l.01 4.81 3.86 1.57v-5.03l-3.87-1.35z"/><path class="cls-84" d="M17.28 53.74l-3.45-1.21v4.62l3.46 1.4-.01-4.81z"/><path class="cls-7" d="M17.29 58.55l-3.46-1.4v4.63l3.47 1.62-.01-4.85z"/><path class="cls-85" d="M17.24 29.8l3.91.29v-5l-3.92-.07.01 4.78z"/><path class="cls-86" d="M17.23 25.02l-3.4-.07v4.6l3.41.25-.01-4.78z"/><path class="cls-87" d="M2.38 20.78l-2.38.1v3.81l2.39.05-.01-3.96z"/><path class="cls-88" d="M4.95 24.79v-4.12l-2.57.11.01 3.96 2.56.05z"/><path class="cls-89" d="M4.95 33.01V28.89l-2.56-.19L0 28.52v3.86l2.4.31 2.55.32z"/><path class="cls-90" d="M4.95 24.79l-2.56-.05v3.96l2.56.19v-4.1z"/><path class="cls-91" d="M2.39 24.74L0 24.69v3.83l2.39.18v-3.96z"/><path class="cls-85" d="M17.22 20.16l-3.39.14v4.65l3.4.07-.01-4.86z"/><path class="cls-2" d="M17.23 25l3.92.08V0L0 5.55v15.33l2.38-.1L5 20.67v-2a8.75 8.75 0 01.26-2.1c.54-2.16 1.9-4 3.86-4.35l.74-.1a3.45 3.45 0 012.83 1.67 7.66 7.66 0 011.19 4.32v2.19l3.39-.14z"/><path class="cls-92" d="M2.4 32.69L0 32.38v3.82l2.41.45-.01-3.96z"/><path class="cls-93" d="M4.95 37.12v-4.11l-2.55-.32.01 3.96 2.54.47z"/><path class="cls-3" d="M5.21 16.61l2.41.21 2.75.25-5.16-.46z"/><path class="cls-4" d="M32.09 55.98v3.94l2.58.89v-3.99l-2.58-.84z"/><path class="cls-5" d="M34.67 56.82v3.99l2.68.93v-4.05l-2.68-.87z"/><path class="cls-6" d="M37.35 49.45l-2.68-.66v4.01l2.68.75v-4.1z"/><path class="cls-7" d="M34.67 48.79l-2.58-.63v3.91l2.58.73v-4.01z"/><path class="cls-8" d="M34.67 52.8l-2.58-.73v3.91l2.58.84V52.8z"/><path class="cls-9" d="M37.35 53.55l-2.68-.75v4.02l2.68.87V53.55z"/><path class="cls-10" d="M37.35 49.43v-4.09l-2.68-.56v4.01l2.68.66v-.02z"/><path class="cls-11" d="M34.67 44.78l-2.58-.53v3.91l2.58.63v-4.01z"/><path class="cls-12" d="M34.67 40.77l-2.58-.43v3.91l2.58.53v-4.01z"/><path class="cls-13" d="M37.35 45.32v-4.11l-2.68-.44v4.01l2.68.56v-.02z"/><path class="cls-14" d="M34.67 36.78l-2.58-.33v3.89l2.58.43v-3.99z"/><path class="cls-15" d="M37.35 37.13l-2.68-.35v3.99l2.68.44v-4.08z"/><path class="cls-16" d="M34.67 28.76l-2.58-.14v3.9l2.58.24v-4z"/><path class="cls-17" d="M37.35 28.9l-2.68-.14v4l2.68.24v-4.1z"/><path class="cls-18" d="M34.67 24.75l-2.58-.05v3.92l2.58.14v-4.01z"/><path class="cls-19" d="M34.67 28.76l2.68.14V18.71c0-2.91-1.55-6.05-4.13-6.45l-.74-.1a3.45 3.45 0 00-2.83 1.67c1.64.66 2.44 2.47 2.44 5.21v5.66l2.58.05z"/><path class="cls-20" d="M34.67 32.76l-2.58-.24v3.93l2.58.33v-4.02z"/><path class="cls-21" d="M37.35 37.12V33l-2.68-.24v4.02l2.68.35v-.01z"/><path class="cls-22" d="M37.35 49.43V53.55l2.51-1.01v-3.99l-2.51.88z"/><path class="cls-23" d="M39.86 52.54l2.43-.99v-3.84l-2.43.84v3.99z"/><path class="cls-24" d="M39.86 48.55l2.43-.84v-3.85l-2.42.71-.01 3.98z"/><path class="cls-25" d="M37.35 45.32V49.43l2.51-.88.01-3.98-2.52.75z"/><path class="cls-26" d="M39.87 44.57l2.42-.71v-3.84l-2.41.58-.01 3.97z"/><path class="cls-27" d="M37.35 41.21v4.11l2.52-.75.01-3.97-2.53.61z"/><path class="cls-28" d="M39.88 40.6l2.41-.58V36.2l-2.41.45v3.95z"/><path class="cls-29" d="M37.35 37.12v4.09l2.53-.61v-3.95l-2.53.47z"/><path class="cls-30" d="M39.84 60.44l2.45-1.27v-3.81l-2.44 1.13-.01 3.95z"/><path class="cls-31" d="M37.35 57.66v4.08l2.49-1.3.01-3.95-2.5 1.17z"/><path class="cls-32" d="M24.99 68.16l3.47-1.81v-4.57L25 63.4l-.01 4.76z"/><path class="cls-33" d="M21.15 65.18L17.3 63.4v4.76l3.85 1.99 3.84-1.99.01-4.76-3.85 1.78z"/><path class="cls-34" d="M25.04 39.39l3.42-.63v-4.63l-3.41.43-.01 4.83z"/><path class="cls-35" d="M21.15 40.11l3.89-.72.01-4.83-3.9.49v5.06z"/><path class="cls-36" d="M25.05 34.56l3.41-.43v-4.58l-3.41.25v4.76z"/><path class="cls-37" d="M21.15 35.05l3.9-.49V29.8l-3.9.29v4.96z"/><path class="cls-38" d="M25.03 44.17l3.43-.83v-4.58l-3.42.63-.01 4.78z"/><path class="cls-34" d="M21.15 45.1l3.88-.93.01-4.78-3.89.72v4.99z"/><path class="cls-39" d="M25.01 53.74l3.45-1.21v-4.58l-3.44 1.02-.01 4.77z"/><path class="cls-40" d="M21.15 55.09l3.86-1.35.01-4.77-3.87 1.14v4.98z"/><path class="cls-41" d="M21.15 50.11l3.87-1.14.01-4.8-3.88.93v5.01z"/><path class="cls-42" d="M25.02 48.97l3.44-1.02v-4.61l-3.43.83-.01 4.8z"/><path class="cls-43" d="M37.35 53.55v4.11l2.5-1.17.01-3.95-2.51 1.01z"/><path class="cls-44" d="M39.85 56.49l2.44-1.13v-3.81l-2.43.99-.01 3.95z"/><path class="cls-26" d="M21.15 60.12L25 58.55l.01-4.81-3.86 1.35v5.03z"/><path class="cls-45" d="M25 58.55l3.46-1.4v-4.62l-3.45 1.21-.01 4.81z"/><path class="cls-46" d="M21.15 60.12l-3.86-1.57.01 4.85 3.85 1.78L25 63.4l3.46-1.62v-4.63L25 58.55l-3.85 1.57z"/><path class="cls-47" d="M21.15 0v20l3.92.16 3.39.14v-2.15a7.66 7.66 0 011.19-4.32 3.45 3.45 0 012.83-1.67l.74.1c2.58.4 4.13 3.54 4.13 6.45v2l2.56.11v4h2.39V5.55z"/><path class="cls-48" d="M25.05 29.8l.01-4.78-3.91.07v5l3.9-.29z"/><path class="cls-49" d="M25.05 29.8l3.41-.25v-4.6l-3.4.07-.01 4.78z"/><path class="cls-50" d="M39.91 24.74v-3.96l-2.56-.11v4.12l2.56-.05z"/><path class="cls-51" d="M37.35 33v.01l2.54-.32.01-3.99-2.55.19V33z"/><path class="cls-52" d="M39.89 32.69l2.4-.31v-3.86l-2.39.18-.01 3.99z"/><path class="cls-48" d="M37.35 24.79v4.1l2.55-.19 2.39-.18v-3.83l-2.38.05-2.56.05z"/><path class="cls-50" d="M21.15 20v5.09l3.91-.07 3.4-.07V20.3l-3.39-.14-3.92-.16z"/><path class="cls-53" d="M39.88 36.65l2.41-.45v-3.82l-2.4.31-.01 3.96z"/><path class="cls-41" d="M37.35 33.01v4.11l2.53-.47.01-3.96-2.54.32z"/><path class="cls-54" d="M9.81 12.16l-.74.1c-2 .31-3.32 2.19-3.86 4.35l5.16.46a4 4 0 012.27-3.24 3.45 3.45 0 00-2.83-1.67z"/><path class="cls-55" d="M4.95 24.79l2.67-.04v-4l-2.67-.08v4.12z"/><path class="cls-37" d="M7.62 24.75l2.59-.05v-3.86l-2.59-.09v4z"/><path class="cls-54" d="M7.62 20.75l2.59.08V19a10.76 10.76 0 01.16-2l-2.75-.25z"/><path class="cls-37" d="M7.62 16.82l-2.41-.21a8.75 8.75 0 00-.21 2.1v2l2.67.08z"/><path class="cls-56" d="M4.95 57.69v4.05l2.67-.93 2.59-.89v-3.94l-2.59.84-2.67.87z"/><path class="cls-57" d="M4.95 53.55l2.67-.75v-4.01l-2.67.66v4.1z"/><path class="cls-7" d="M7.62 52.8l2.59-.73v-3.91l-2.59.63v4.01z"/><path class="cls-33" d="M4.95 53.55V57.69l2.67-.87 2.59-.84v-3.91l-2.59.73-2.67.75z"/><path class="cls-58" d="M4.95 49.43v.02l2.67-.66v-4.01l-2.67.56v4.09z"/><path class="cls-59" d="M7.62 48.79l2.59-.63v-3.91l-2.59.53v4.01z"/><path class="cls-60" d="M7.62 44.78l2.59-.53v-3.91l-2.59.43v4.01z"/><path class="cls-61" d="M4.95 41.21v4.13l2.67-.56v-4.01l-2.67.44z"/><path class="cls-62" d="M7.62 40.77l2.59-.43v-3.89l-2.59.33v3.99z"/><path class="cls-63" d="M4.95 41.21l2.67-.44v-3.99l-2.67.35v4.08z"/><path class="cls-64" d="M7.62 32.76l2.59-.24v-3.9l-2.59.14v4z"/><path class="cls-65" d="M4.95 33l2.67-.24v-4l-2.67.14V33z"/><path class="cls-36" d="M7.62 28.76l2.59-.14V24.7l-2.59.05v4.01z"/><path class="cls-66" d="M4.95 28.89v.01l2.67-.14v-4.01l-2.67.04v4.1z"/><path class="cls-67" d="M7.62 36.78l2.59-.33v-3.93l-2.59.24v4.02z"/><path class="cls-68" d="M4.95 33.01v4.12l2.67-.35v-4.02L4.95 33v.01z"/><path class="cls-43" d="M4.95 49.43l-2.52-.88.01 3.99 2.51 1.01V49.43z"/><path class="cls-69" d="M2.43 48.55L0 47.71v3.84l2.44.99-.01-3.99z"/><path class="cls-70" d="M2.42 44.57L0 43.86v3.85l2.43.84-.01-3.98z"/><path class="cls-71" d="M4.95 49.43V45.32l-2.53-.75.01 3.98 2.52.88z"/><path class="cls-72" d="M2.41 40.6L0 40.02v3.84l2.42.71-.01-3.97z"/><path class="cls-63" d="M4.95 45.32v-4.11l-2.54-.61.01 3.97 2.53.75z"/><path class="cls-55" d="M2.41 36.65L0 36.2v3.82l2.41.58v-3.95z"/><path class="cls-41" d="M4.95 41.21v-4.09l-2.54-.47v3.95l2.54.61z"/><path class="cls-30" d="M0 55.36v3.81l2.45 1.27-.01-3.95L0 55.36z"/><path class="cls-4" d="M4.95 57.66l-2.51-1.17.01 3.95 2.5 1.3v-4.08z"/><path class="cls-73" d="M13.83 61.78v4.57l3.47 1.81V63.4l-3.47-1.62z"/><path class="cls-74" d="M17.25 34.56l-3.42-.43v4.63l3.42.63v-4.83z"/><path class="cls-75" d="M21.15 35.05l-3.9-.49v4.83l3.9.72v-5.06z"/><path class="cls-76" d="M17.24 29.8l-3.41-.25v4.58l3.42.43-.01-4.76z"/><path class="cls-77" d="M21.15 30.09l-3.91-.29.01 4.76 3.9.49v-4.96z"/><path class="cls-78" d="M17.25 39.39l-3.42-.63v4.58l3.43.83-.01-4.78z"/><path class="cls-47" d="M21.15 40.11l-3.9-.72.01 4.78 3.89.93v-4.99z"/><path class="cls-79" d="M17.27 48.97l-3.44-1.02v4.58l3.45 1.21-.01-4.77z"/><path class="cls-80" d="M21.15 50.11l-3.88-1.14.01 4.77 3.87 1.35v-4.98z"/><path class="cls-81" d="M21.15 45.1l-3.89-.93.01 4.8 3.88 1.14V45.1z"/><path class="cls-82" d="M17.26 44.17l-3.43-.83v4.61l3.44 1.02-.01-4.8z"/><path class="cls-83" d="M2.44 52.54v3.95l2.51 1.17v-4.11l-2.51-1.01z"/><path class="cls-31" d="M2.44 52.54L0 51.55v3.81l2.44 1.13v-3.95z"/><path class="cls-7" d="M17.28 53.74l.01 4.81 3.86 1.57v-5.03l-3.87-1.35z"/><path class="cls-84" d="M17.28 53.74l-3.45-1.21v4.62l3.46 1.4-.01-4.81z"/><path class="cls-7" d="M17.29 58.55l-3.46-1.4v4.63l3.47 1.62-.01-4.85z"/><path class="cls-85" d="M17.24 29.8l3.91.29v-5l-3.92-.07.01 4.78z"/><path class="cls-86" d="M17.23 25.02l-3.4-.07v4.6l3.41.25-.01-4.78z"/><path class="cls-87" d="M2.38 20.78l-2.38.1v3.81l2.39.05-.01-3.96z"/><path class="cls-88" d="M4.95 24.79v-4.12l-2.57.11.01 3.96 2.56.05z"/><path class="cls-89" d="M4.95 33.01V28.89l-2.56-.19L0 28.52v3.86l2.4.31 2.55.32z"/><path class="cls-90" d="M4.95 24.79l-2.56-.05v3.96l2.56.19v-4.1z"/><path class="cls-91" d="M2.39 24.74L0 24.69v3.83l2.39.18v-3.96z"/><path class="cls-85" d="M17.22 20.16l-3.39.14v4.65l3.4.07-.01-4.86z"/><path class="cls-2" d="M17.23 25l3.92.08V0L0 5.55v15.33l2.38-.1L5 20.67v-2a8.75 8.75 0 01.26-2.1c.54-2.16 1.9-4 3.86-4.35l.74-.1a3.45 3.45 0 012.83 1.67 7.66 7.66 0 011.19 4.32v2.19l3.39-.14z"/><path class="cls-92" d="M2.4 32.69L0 32.38v3.82l2.41.45-.01-3.96z"/><path class="cls-93" d="M4.95 37.12v-4.11l-2.55-.32.01 3.96 2.54.47z"/><path class="cls-3" d="M5.21 16.61l2.41.21 2.75.25-5.16-.46z"/><path class="cls-4" d="M32.09 55.98v3.94l2.58.89v-3.99l-2.58-.84z"/><path class="cls-5" d="M34.67 56.82v3.99l2.68.93v-4.05l-2.68-.87z"/><path class="cls-6" d="M37.35 49.45l-2.68-.66v4.01l2.68.75v-4.1z"/><path class="cls-7" d="M34.67 48.79l-2.58-.63v3.91l2.58.73v-4.01z"/><path class="cls-8" d="M34.67 52.8l-2.58-.73v3.91l2.58.84V52.8z"/><path class="cls-9" d="M37.35 53.55l-2.68-.75v4.02l2.68.87V53.55z"/><path class="cls-10" d="M37.35 49.43v-4.09l-2.68-.56v4.01l2.68.66v-.02z"/><path class="cls-11" d="M34.67 44.78l-2.58-.53v3.91l2.58.63v-4.01z"/><path class="cls-12" d="M34.67 40.77l-2.58-.43v3.91l2.58.53v-4.01z"/><path class="cls-13" d="M37.35 45.32v-4.11l-2.68-.44v4.01l2.68.56v-.02z"/><path class="cls-14" d="M34.67 36.78l-2.58-.33v3.89l2.58.43v-3.99z"/><path class="cls-15" d="M37.35 37.13l-2.68-.35v3.99l2.68.44v-4.08z"/><path class="cls-16" d="M34.67 28.76l-2.58-.14v3.9l2.58.24v-4z"/><path class="cls-17" d="M37.35 28.9l-2.68-.14v4l2.68.24v-4.1z"/><path class="cls-18" d="M34.67 24.75l-2.58-.05v3.92l2.58.14v-4.01z"/><path class="cls-19" d="M34.67 28.76l2.68.14V18.71c0-2.91-1.55-6.05-4.13-6.45l-.74-.1a3.45 3.45 0 00-2.83 1.67c1.64.66 2.44 2.47 2.44 5.21v5.66l2.58.05z"/><path class="cls-20" d="M34.67 32.76l-2.58-.24v3.93l2.58.33v-4.02z"/><path class="cls-21" d="M37.35 37.12V33l-2.68-.24v4.02l2.68.35v-.01z"/><path class="cls-22" d="M37.35 49.43V53.55l2.51-1.01v-3.99l-2.51.88z"/><path class="cls-23" d="M39.86 52.54l2.43-.99v-3.84l-2.43.84v3.99z"/><path class="cls-24" d="M39.86 48.55l2.43-.84v-3.85l-2.42.71-.01 3.98z"/><path class="cls-25" d="M37.35 45.32V49.43l2.51-.88.01-3.98-2.52.75z"/><path class="cls-26" d="M39.87 44.57l2.42-.71v-3.84l-2.41.58-.01 3.97z"/><path class="cls-27" d="M37.35 41.21v4.11l2.52-.75.01-3.97-2.53.61z"/><path class="cls-28" d="M39.88 40.6l2.41-.58V36.2l-2.41.45v3.95z"/><path class="cls-29" d="M37.35 37.12v4.09l2.53-.61v-3.95l-2.53.47z"/><path class="cls-30" d="M39.84 60.44l2.45-1.27v-3.81l-2.44 1.13-.01 3.95z"/><path class="cls-31" d="M37.35 57.66v4.08l2.49-1.3.01-3.95-2.5 1.17z"/><path class="cls-32" d="M24.99 68.16l3.47-1.81v-4.57L25 63.4l-.01 4.76z"/><path class="cls-33" d="M21.15 65.18L17.3 63.4v4.76l3.85 1.99 3.84-1.99.01-4.76-3.85 1.78z"/><path class="cls-34" d="M25.04 39.39l3.42-.63v-4.63l-3.41.43-.01 4.83z"/><path class="cls-35" d="M21.15 40.11l3.89-.72.01-4.83-3.9.49v5.06z"/><path class="cls-36" d="M25.05 34.56l3.41-.43v-4.58l-3.41.25v4.76z"/><path class="cls-37" d="M21.15 35.05l3.9-.49V29.8l-3.9.29v4.96z"/><path class="cls-38" d="M25.03 44.17l3.43-.83v-4.58l-3.42.63-.01 4.78z"/><path class="cls-34" d="M21.15 45.1l3.88-.93.01-4.78-3.89.72v4.99z"/><path class="cls-39" d="M25.01 53.74l3.45-1.21v-4.58l-3.44 1.02-.01 4.77z"/><path class="cls-40" d="M21.15 55.09l3.86-1.35.01-4.77-3.87 1.14v4.98z"/><path class="cls-41" d="M21.15 50.11l3.87-1.14.01-4.8-3.88.93v5.01z"/><path class="cls-42" d="M25.02 48.97l3.44-1.02v-4.61l-3.43.83-.01 4.8z"/><path class="cls-43" d="M37.35 53.55v4.11l2.5-1.17.01-3.95-2.51 1.01z"/><path class="cls-44" d="M39.85 56.49l2.44-1.13v-3.81l-2.43.99-.01 3.95z"/><path class="cls-26" d="M21.15 60.12L25 58.55l.01-4.81-3.86 1.35v5.03z"/><path class="cls-45" d="M25 58.55l3.46-1.4v-4.62l-3.45 1.21-.01 4.81z"/><path class="cls-46" d="M21.15 60.12l-3.86-1.57.01 4.85 3.85 1.78L25 63.4l3.46-1.62v-4.63L25 58.55l-3.85 1.57z"/><path class="cls-47" d="M21.15 0v20l3.92.16 3.39.14v-2.15a7.66 7.66 0 011.19-4.32 3.45 3.45 0 012.83-1.67l.74.1c2.58.4 4.13 3.54 4.13 6.45v2l2.56.11v4h2.39V5.55z"/><path class="cls-48" d="M25.05 29.8l.01-4.78-3.91.07v5l3.9-.29z"/><path class="cls-49" d="M25.05 29.8l3.41-.25v-4.6l-3.4.07-.01 4.78z"/><path class="cls-50" d="M39.91 24.74v-3.96l-2.56-.11v4.12l2.56-.05z"/><path class="cls-51" d="M37.35 33v.01l2.54-.32.01-3.99-2.55.19V33z"/><path class="cls-52" d="M39.89 32.69l2.4-.31v-3.86l-2.39.18-.01 3.99z"/><path class="cls-48" d="M37.35 24.79v4.1l2.55-.19 2.39-.18v-3.83l-2.38.05-2.56.05z"/><path class="cls-50" d="M21.15 20v5.09l3.91-.07 3.4-.07V20.3l-3.39-.14-3.92-.16z"/><path class="cls-53" d="M39.88 36.65l2.41-.45v-3.82l-2.4.31-.01 3.96z"/><path class="cls-41" d="M37.35 33.01v4.11l2.53-.47.01-3.96-2.54.32z"/><path class="cls-54" d="M9.81 12.16l-.74.1c-2 .31-3.32 2.19-3.86 4.35l5.16.46a4 4 0 012.27-3.24 3.45 3.45 0 00-2.83-1.67z"/><path class="cls-55" d="M4.95 24.79l2.67-.04v-4l-2.67-.08v4.12z"/><path class="cls-37" d="M7.62 24.75l2.59-.05v-3.86l-2.59-.09v4z"/><path class="cls-54" d="M7.62 20.75l2.59.08V19a10.76 10.76 0 01.16-2l-2.75-.25z"/><path class="cls-37" d="M7.62 16.82l-2.41-.21a8.75 8.75 0 00-.21 2.1v2l2.67.08z"/><path class="cls-56" d="M4.95 57.69v4.05l2.67-.93 2.59-.89v-3.94l-2.59.84-2.67.87z"/><path class="cls-57" d="M4.95 53.55l2.67-.75v-4.01l-2.67.66v4.1z"/><path class="cls-7" d="M7.62 52.8l2.59-.73v-3.91l-2.59.63v4.01z"/><path class="cls-33" d="M4.95 53.55V57.69l2.67-.87 2.59-.84v-3.91l-2.59.73-2.67.75z"/><path class="cls-58" d="M4.95 49.43v.02l2.67-.66v-4.01l-2.67.56v4.09z"/><path class="cls-59" d="M7.62 48.79l2.59-.63v-3.91l-2.59.53v4.01z"/><path class="cls-60" d="M7.62 44.78l2.59-.53v-3.91l-2.59.43v4.01z"/><path class="cls-61" d="M4.95 41.21v4.13l2.67-.56v-4.01l-2.67.44z"/><path class="cls-62" d="M7.62 40.77l2.59-.43v-3.89l-2.59.33v3.99z"/><path class="cls-63" d="M4.95 41.21l2.67-.44v-3.99l-2.67.35v4.08z"/><path class="cls-64" d="M7.62 32.76l2.59-.24v-3.9l-2.59.14v4z"/><path class="cls-65" d="M4.95 33l2.67-.24v-4l-2.67.14V33z"/><path class="cls-36" d="M7.62 28.76l2.59-.14V24.7l-2.59.05v4.01z"/><path class="cls-66" d="M4.95 28.89v.01l2.67-.14v-4.01l-2.67.04v4.1z"/><path class="cls-67" d="M7.62 36.78l2.59-.33v-3.93l-2.59.24v4.02z"/><path class="cls-68" d="M4.95 33.01v4.12l2.67-.35v-4.02L4.95 33v.01z"/><path class="cls-43" d="M4.95 49.43l-2.52-.88.01 3.99 2.51 1.01V49.43z"/><path class="cls-69" d="M2.43 48.55L0 47.71v3.84l2.44.99-.01-3.99z"/><path class="cls-70" d="M2.42 44.57L0 43.86v3.85l2.43.84-.01-3.98z"/><path class="cls-71" d="M4.95 49.43V45.32l-2.53-.75.01 3.98 2.52.88z"/><path class="cls-72" d="M2.41 40.6L0 40.02v3.84l2.42.71-.01-3.97z"/><path class="cls-63" d="M4.95 45.32v-4.11l-2.54-.61.01 3.97 2.53.75z"/><path class="cls-55" d="M2.41 36.65L0 36.2v3.82l2.41.58v-3.95z"/><path class="cls-41" d="M4.95 41.21v-4.09l-2.54-.47v3.95l2.54.61z"/><path class="cls-30" d="M0 55.36v3.81l2.45 1.27-.01-3.95L0 55.36z"/><path class="cls-4" d="M4.95 57.66l-2.51-1.17.01 3.95 2.5 1.3v-4.08z"/><path class="cls-73" d="M13.83 61.78v4.57l3.47 1.81V63.4l-3.47-1.62z"/><path class="cls-74" d="M17.25 34.56l-3.42-.43v4.63l3.42.63v-4.83z"/><path class="cls-75" d="M21.15 35.05l-3.9-.49v4.83l3.9.72v-5.06z"/><path class="cls-76" d="M17.24 29.8l-3.41-.25v4.58l3.42.43-.01-4.76z"/><path class="cls-77" d="M21.15 30.09l-3.91-.29.01 4.76 3.9.49v-4.96z"/><path class="cls-78" d="M17.25 39.39l-3.42-.63v4.58l3.43.83-.01-4.78z"/><path class="cls-47" d="M21.15 40.11l-3.9-.72.01 4.78 3.89.93v-4.99z"/><path class="cls-79" d="M17.27 48.97l-3.44-1.02v4.58l3.45 1.21-.01-4.77z"/><path class="cls-80" d="M21.15 50.11l-3.88-1.14.01 4.77 3.87 1.35v-4.98z"/><path class="cls-81" d="M21.15 45.1l-3.89-.93.01 4.8 3.88 1.14V45.1z"/><path class="cls-82" d="M17.26 44.17l-3.43-.83v4.61l3.44 1.02-.01-4.8z"/><path class="cls-83" d="M2.44 52.54v3.95l2.51 1.17v-4.11l-2.51-1.01z"/><path class="cls-31" d="M2.44 52.54L0 51.55v3.81l2.44 1.13v-3.95z"/><path class="cls-7" d="M17.28 53.74l.01 4.81 3.86 1.57v-5.03l-3.87-1.35z"/><path class="cls-84" d="M17.28 53.74l-3.45-1.21v4.62l3.46 1.4-.01-4.81z"/><path class="cls-7" d="M17.29 58.55l-3.46-1.4v4.63l3.47 1.62-.01-4.85z"/><path class="cls-85" d="M17.24 29.8l3.91.29v-5l-3.92-.07.01 4.78z"/><path class="cls-86" d="M17.23 25.02l-3.4-.07v4.6l3.41.25-.01-4.78z"/><path class="cls-87" d="M2.38 20.78l-2.38.1v3.81l2.39.05-.01-3.96z"/><path class="cls-88" d="M4.95 24.79v-4.12l-2.57.11.01 3.96 2.56.05z"/><path class="cls-89" d="M4.95 33.01V28.89l-2.56-.19L0 28.52v3.86l2.4.31 2.55.32z"/><path class="cls-90" d="M4.95 24.79l-2.56-.05v3.96l2.56.19v-4.1z"/><path class="cls-91" d="M2.39 24.74L0 24.69v3.83l2.39.18v-3.96z"/><path class="cls-85" d="M17.22 20.16l-3.39.14v4.65l3.4.07-.01-4.86z"/><path class="cls-2" d="M17.23 25l3.92.08V0L0 5.55v15.33l2.38-.1L5 20.67v-2a8.75 8.75 0 01.26-2.1c.54-2.16 1.9-4 3.86-4.35l.74-.1a3.45 3.45 0 012.83 1.67 7.66 7.66 0 011.19 4.32v2.19l3.39-.14z"/><path class="cls-92" d="M2.4 32.69L0 32.38v3.82l2.41.45-.01-3.96z"/><path class="cls-93" d="M4.95 37.12v-4.11l-2.55-.32.01 3.96 2.54.47z"/></svg>
