<?xml version="1.0" standalone="no"?>
<!DOCTYPE svg PUBLIC "-//W3C//DTD SVG 20010904//EN"
 "http://www.w3.org/TR/2001/REC-SVG-20010904/DTD/svg10.dtd">
<svg version="1.0" xmlns="http://www.w3.org/2000/svg"
 width="942.000000pt" height="859.000000pt" viewBox="0 0 942.000000 859.000000"
 preserveAspectRatio="xMidYMid meet">

<g transform="translate(0.000000,859.000000) scale(0.100000,-0.100000)"
fill="#000000" stroke="none">
<path d="M4360 6790 l0 -780 845 0 845 0 0 780 0 780 -845 0 -845 0 0 -780z"/>
<path d="M2355 7118 c-3 -7 -4 -294 -3 -638 l3 -625 635 0 635 0 0 635 0 635
-633 3 c-501 2 -634 0 -637 -10z m1265 -628 l0 -630 -630 0 -630 0 0 630 0
630 630 0 630 0 0 -630z"/>
<path d="M4360 5245 l0 -385 370 0 370 0 0 -530 0 -530 -370 0 -370 0 0 -575
0 -575 205 0 205 0 0 -545 0 -545 -205 0 -205 0 0 -525 0 -525 845 0 845 0 -2
2558 -3 2557 -842 3 -843 2 0 -385z"/>
<path d="M2920 4840 l0 -520 515 0 515 0 0 520 0 520 -515 0 -515 0 0 -520z"/>
<path d="M1855 5040 l570 -5 3 -797 2 -798 -572 -3 -573 -2 575 0 575 0 0 805
0 805 -575 0 -575 0 570 -5z"/>
<path d="M2640 2660 l0 -520 515 0 515 0 0 520 0 520 -515 0 -515 0 0 -520z"/>
<path d="M1500 2620 l215 -5 3 -792 2 -793 -220 -3 -220 -3 222 1 223 0 0 800
0 800 -220 0 -220 1 215 -6z"/>
<path d="M2135 1388 c-3 -7 -4 -294 -3 -638 l3 -625 635 0 635 0 0 635 0 635
-633 3 c-501 2 -634 0 -637 -10z m1265 -628 l0 -630 -630 0 -630 0 0 630 0
630 630 0 630 0 0 -630z"/>
</g>
</svg>
