<svg xmlns="http://www.w3.org/2000/svg" xmlns:xlink="http://www.w3.org/1999/xlink" width="105.07" height="104.507" viewBox="0 0 105.07 104.507">
  <defs>
    <filter id="Rectangle_4629" x="0" y="0" width="105.07" height="104.507" filterUnits="userSpaceOnUse">
      <feOffset dy="1" input="SourceAlpha"/>
      <feGaussianBlur stdDeviation="1" result="blur"/>
      <feFlood flood-opacity="0.604"/>
      <feComposite operator="in" in2="blur"/>
      <feComposite in="SourceGraphic"/>
    </filter>
  </defs>
  <g id="Group_12739" data-name="Group 12739" transform="translate(-79 -683.747)">
    <g transform="matrix(1, 0, 0, 1, 79, 683.75)" filter="url(#Rectangle_4629)">
      <g id="Rectangle_4629-2" data-name="Rectangle 4629" transform="translate(3 2)" fill="#fff" stroke="#f0edf2" stroke-width="1">
        <rect width="99.07" height="98.507" rx="15" stroke="none"/>
        <rect x="0.5" y="0.5" width="98.07" height="97.507" rx="14.5" fill="none"/>
      </g>
    </g>
    <g id="Group_12044" data-name="Group 12044" transform="translate(100.326 711.514)">
      <g id="Group_12740" data-name="Group 12740" transform="translate(-4 -4)">
        <rect id="Rectangle_4631" data-name="Rectangle 4631" width="12.088" height="12.088" transform="translate(50.479 35.929)" fill="#44ca67"/>
        <rect id="Rectangle_4632" data-name="Rectangle 4632" width="12.088" height="12.088" transform="translate(7.498 8.395)" fill="#44ca67"/>
        <path id="Path_5120" data-name="Path 5120" d="M19.228-66.448H8.65a1.764,1.764,0,0,0-1.763,1.763v10.577A1.764,1.764,0,0,0,8.65-52.345H19.228a1.764,1.764,0,0,0,1.763-1.763V-64.685A1.764,1.764,0,0,0,19.228-66.448ZM17.465-55.871H10.413v-7.052h7.052ZM49.2-57.634v8.814h3.526v-8.814a5.291,5.291,0,0,0-5.289-5.289H31.568V-59.4H47.434A1.764,1.764,0,0,1,49.2-57.634Zm12.34,19.392H50.96A1.764,1.764,0,0,0,49.2-36.479V-25.9a1.764,1.764,0,0,0,1.763,1.763H61.537A1.764,1.764,0,0,0,63.3-25.9V-36.479A1.764,1.764,0,0,0,61.537-38.242ZM59.774-27.665H52.723v-7.052h7.052Zm5.289-17.629H47.434A5.291,5.291,0,0,0,42.145-40v17.629a5.291,5.291,0,0,0,5.289,5.289H65.063a5.291,5.291,0,0,0,5.289-5.289V-40A5.291,5.291,0,0,0,65.063-45.294Zm1.763,22.918a1.764,1.764,0,0,1-1.763,1.763H47.434a1.764,1.764,0,0,1-1.763-1.763V-40a1.764,1.764,0,0,1,1.763-1.763H65.063A1.764,1.764,0,0,1,66.826-40ZM20.991-32.953v-8.814H17.465v8.814a5.291,5.291,0,0,0,5.289,5.289H38.62V-31.19H22.754A1.764,1.764,0,0,1,20.991-32.953Zm7.052-17.629V-68.211A5.291,5.291,0,0,0,22.754-73.5H5.125A5.291,5.291,0,0,0-.164-68.211v17.629a5.291,5.291,0,0,0,5.289,5.289H22.754A5.291,5.291,0,0,0,28.042-50.582Zm-24.68,0V-68.211a1.764,1.764,0,0,1,1.763-1.763H22.754a1.764,1.764,0,0,1,1.763,1.763v17.629a1.764,1.764,0,0,1-1.763,1.763H5.125A1.764,1.764,0,0,1,3.362-50.582Z" transform="translate(0.164 73.5)" fill="#1a1a1a"/>
      </g>
    </g>
  </g>
</svg>
