<?xml version="1.0" encoding="UTF-8" standalone="no"?>
<svg
   xmlns:dc="http://purl.org/dc/elements/1.1/"
   xmlns:cc="http://creativecommons.org/ns#"
   xmlns:rdf="http://www.w3.org/1999/02/22-rdf-syntax-ns#"
   xmlns:svg="http://www.w3.org/2000/svg"
   xmlns="http://www.w3.org/2000/svg"
   xmlns:sodipodi="http://sodipodi.sourceforge.net/DTD/sodipodi-0.dtd"
   xmlns:inkscape="http://www.inkscape.org/namespaces/inkscape"
   id="svg"
   version="1.1"
   width="100"
   height="88.771446"
   viewBox="0 0 100 88.771449"
   sodipodi:docname="logo.svg"
   inkscape:version="0.92.5 (2060ec1f9f, 2020-04-08)">
  <metadata
     id="metadata13">
    <rdf:RDF>
      <cc:Work
         rdf:about="">
        <dc:format>image/svg+xml</dc:format>
        <dc:type
           rdf:resource="http://purl.org/dc/dcmitype/StillImage" />
        <dc:title />
      </cc:Work>
    </rdf:RDF>
  </metadata>
  <defs
     id="defs11" />
  <sodipodi:namedview
     pagecolor="#ffffff"
     bordercolor="#666666"
     borderopacity="1"
     objecttolerance="10"
     gridtolerance="10"
     guidetolerance="10"
     inkscape:pageopacity="0"
     inkscape:pageshadow="2"
     inkscape:window-width="1405"
     inkscape:window-height="912"
     id="namedview9"
     showgrid="false"
     inkscape:zoom="0.64700817"
     inkscape:cx="9.713125"
     inkscape:cy="178.57097"
     inkscape:window-x="1918"
     inkscape:window-y="843"
     inkscape:window-maximized="0"
     inkscape:current-layer="svg" />
  <g
     id="svgg"
     transform="matrix(0.25903499,0,0,0.25903499,-1.0478025,-4.7268705)">
    <path
       id="path0"
       d="m 185.645,44.039 c -0.349,0.349 -0.291,64.445 0.058,64.996 0.231,0.363 7.572,0.438 35.488,0.365 l 35.196,-0.093 0.093,-32.756 0.093,-32.755 h -35.342 c -19.439,0 -35.452,0.109 -35.586,0.243 m -0.077,82.695 c -0.096,0.251 -0.132,7.354 -0.079,15.784 l 0.095,15.329 15.511,0.2 c 8.531,0.11 15.552,0.233 15.602,0.274 0.05,0.04 0.091,10.256 0.091,22.701 v 22.628 h -15.283 c -12.449,0 -15.361,0.092 -15.697,0.496 -0.299,0.361 -0.386,6.99 -0.318,24.179 l 0.094,23.682 8.577,0.183 8.576,0.182 v 23.175 23.176 l -8.576,0.182 -8.577,0.183 -0.094,21.577 c -0.078,17.882 -0.009,21.647 0.404,21.99 0.366,0.304 9.822,0.39 35.496,0.321 l 34.997,-0.093 0.092,-108.303 0.092,-108.303 h -35.414 c -27.999,0 -35.45,0.096 -35.589,0.457 m -61.115,32.573 v 21.721 l 21.441,-0.094 21.442,-0.095 v -21.532 -21.533 l -21.442,-0.094 -21.441,-0.095 v 21.722 m -84.559,-9.399 c 2.571,0.063 6.676,0.063 9.124,-10e-4 2.447,-0.063 0.343,-0.114 -4.675,-0.114 -5.018,0 -7.02,0.052 -4.449,0.115 m -4.781,69.631 c -0.411,0.467 0.72,0.534 8.994,0.534 8.076,0 9.495,-0.08 9.675,-0.547 0.311,-0.812 -17.953,-0.798 -18.669,0.013 m 77.463,11.209 c -0.096,0.251 -0.132,9.982 -0.079,21.624 l 0.094,21.168 h 21.351 21.35 l 0.094,-21.624 0.094,-21.624 h -21.364 c -16.756,0 -21.403,0.098 -21.54,0.456 m -94.575,21.715 c 6.588,0.056 17.264,0.056 23.723,0 6.459,-0.056 1.068,-0.101 -11.979,-0.101 -13.048,0 -18.333,0.046 -11.744,0.101 M 4.046,287.409 c -0.013,22.038 0.104,33.749 0.334,33.394 0.445,-0.69 0.445,-65.569 0,-66.606 -0.179,-0.414 -0.323,13.942 -0.334,33.212 m 2.158,34.674 c 0,0.752 47.104,0.658 47.354,-0.094 0.121,-0.362 -4.76,-0.456 -23.601,-0.456 -20.921,0 -23.753,0.065 -23.753,0.55 m 83.486,24.114 c -0.4,0.401 -0.337,12.845 0.066,13.094 0.187,0.115 0.392,0.084 0.456,-0.07 0.246,-0.591 -0.263,-13.284 -0.522,-13.024 m 55.718,6.54 c 0,3.814 0.054,5.325 0.12,3.357 0.066,-1.967 0.065,-5.088 -0.001,-6.934 -0.066,-1.846 -0.12,-0.237 -0.119,3.577 m -54.15,7.463 c -0.291,0.185 -0.661,0.255 -0.821,0.156 -0.16,-0.099 -0.291,-0.047 -0.291,0.115 0,0.163 12.303,0.295 27.341,0.295 21.832,0 27.265,-0.092 26.963,-0.456 -0.463,-0.557 -52.314,-0.664 -53.192,-0.11"
       inkscape:connector-curvature="0"
       style="fill:#5c5554;fill-rule:evenodd;stroke:none" />
    <path
       id="path1"
       d="m 54.006,19.184 c -0.578,1.52 -0.479,130.427 0.1,130.648 0.251,0.096 11.405,0.214 24.787,0.263 13.382,0.048 24.468,0.224 24.635,0.392 0.437,0.437 0.568,67.809 0.133,68.491 -0.304,0.476 -3.521,0.559 -24.724,0.635 -13.406,0.049 -24.58,0.167 -24.831,0.263 -0.772,0.295 -0.653,32.525 0.121,32.822 0.317,0.122 4.65,0.222 9.627,0.222 7.18,0 9.134,0.102 9.461,0.496 0.3,0.362 0.386,9.651 0.318,34.397 l -0.093,33.902 -9.459,0.098 c -6.232,0.064 -9.625,0.235 -9.945,0.501 -0.793,0.658 -0.706,23.509 0.091,23.815 1.183,0.454 35.017,0.247 35.481,-0.217 0.33,-0.329 0.438,-5.312 0.438,-20.182 0,-14.87 0.108,-19.853 0.438,-20.183 0.551,-0.55 53.074,-0.629 53.942,-0.08 0.474,0.299 0.557,2.983 0.623,19.997 0.042,10.808 0.182,19.929 0.313,20.269 0.256,0.669 242.813,0.983 243.864,0.316 0.472,-0.3 0.724,-326.706 0.253,-327.468 -0.124,-0.2 -67.246,-0.333 -167.712,-0.333 H 54.361 l -0.355,0.936 m 203.072,24.459 c 0.575,1.499 0.234,65.781 -0.352,66.367 -0.674,0.674 -70.267,0.885 -71.325,0.217 -0.552,-0.349 -1.082,-64.165 -0.551,-66.34 l 0.2,-0.821 h 35.903 c 32.402,0 35.925,0.056 36.125,0.577 M 153.802,61.9 c 0.883,0.339 0.883,54.328 0,54.667 -0.754,0.289 -52.835,0.289 -53.59,0 -0.776,-0.298 -0.896,-54.334 -0.121,-54.646 0.658,-0.266 53.021,-0.285 53.711,-0.021 m -53.268,0.963 c -0.097,0.252 -0.133,12.283 -0.081,26.736 l 0.094,26.277 h 26.46 26.46 V 89.234 62.591 l -26.379,-0.093 c -20.91,-0.075 -26.415,0.001 -26.554,0.365 m 52.568,26.371 v 26.277 h -26.095 -26.095 l -0.094,-25.912 c -0.052,-14.252 -0.016,-26.119 0.081,-26.372 0.139,-0.363 5.571,-0.439 26.189,-0.364 l 26.014,0.093 v 26.278 m 103.819,36.654 c 0.5,0.934 0.521,216.387 0.021,217.178 -0.304,0.48 -4.7,0.547 -35.957,0.547 -31.256,0 -35.652,-0.067 -35.956,-0.547 -0.664,-1.05 -0.456,-43.645 0.216,-44.317 0.487,-0.488 1.804,-0.574 8.759,-0.574 h 8.186 V 275.547 252.92 h -8.186 c -6.955,0 -8.272,-0.087 -8.759,-0.574 -0.628,-0.628 -0.894,-47.627 -0.275,-48.601 0.219,-0.345 3.906,-0.475 15.596,-0.548 l 15.31,-0.095 0.094,-22.171 0.094,-22.172 h -15.475 c -13.774,0 -15.499,-0.063 -15.696,-0.577 -0.377,-0.984 -0.251,-31.049 0.134,-32.063 l 0.356,-0.937 h 35.581 c 34.803,0 35.588,0.016 35.957,0.706 m -89.246,11.547 c 0.77,0.77 0.882,42.662 0.117,43.704 -0.422,0.574 -2.081,0.614 -22.172,0.525 l -21.715,-0.095 -0.094,-22.057 c -0.074,-17.404 0.003,-22.118 0.365,-22.348 0.977,-0.621 42.868,-0.36 43.499,0.271 m -11.559,114.166 c 0.068,15.84 -0.019,21.994 -0.318,22.354 -0.763,0.919 -43.246,0.716 -43.741,-0.208 -0.578,-1.08 -0.518,-43.169 0.063,-43.75 0.336,-0.337 5.573,-0.418 22.171,-0.347 l 21.731,0.095 0.094,21.856 m -65.072,54.695 c -0.096,0.251 -0.132,12.281 -0.08,26.733 l 0.094,26.278 26.437,0.093 c 20.908,0.074 26.498,-0.002 26.728,-0.365 0.505,-0.796 0.373,-52.249 -0.135,-52.758 -0.651,-0.65 -52.796,-0.633 -53.044,0.019 m 52.5,0.182 c 0.086,0.151 0.219,12.017 0.295,26.369 l 0.139,26.095 H 117.701 91.423 l -0.094,-25.913 c -0.052,-14.252 -0.016,-26.118 0.08,-26.368 0.196,-0.514 51.842,-0.695 52.135,-0.183"
       inkscape:connector-curvature="0"
       style="fill:#b4c49c;fill-rule:evenodd;stroke:none" />
    <path
       id="path2"
       d="m 53.662,18.954 c -0.257,0.481 -0.349,21.457 -0.289,65.785 l 0.089,65.079 0.185,-65.329 c 0.102,-35.931 0.318,-65.534 0.48,-65.785 0.163,-0.251 0.21,-0.456 0.104,-0.456 -0.105,0 -0.361,0.318 -0.569,0.706 m 336.3,163.345 c 0,89.325 0.042,125.813 0.093,81.084 0.051,-44.729 0.051,-117.813 0,-162.409 -0.051,-44.596 -0.093,-8 -0.093,81.325 M 100.899,63.227 c -0.097,0.253 -0.133,12.12 -0.081,26.372 l 0.094,25.912 h 26.095 26.095 V 89.234 62.956 l -26.014,-0.093 c -20.618,-0.075 -26.05,10e-4 -26.189,0.364 M 53.452,236.131 c 0,8.933 0.048,12.587 0.106,8.121 0.058,-4.466 0.058,-11.775 0,-16.241 -0.058,-4.466 -0.106,-0.812 -0.106,8.12 m 37.957,70.53 c -0.096,0.25 -0.132,12.116 -0.08,26.368 l 0.094,25.913 h 26.278 26.277 l -0.139,-26.095 c -0.076,-14.352 -0.209,-26.218 -0.295,-26.369 -0.293,-0.512 -51.939,-0.331 -52.135,0.183 m -37.962,27.281 c 0,6.323 0.05,8.909 0.111,5.748 0.06,-3.162 0.06,-8.335 0,-11.497 -0.061,-3.161 -0.111,-0.574 -0.111,5.749"
       inkscape:connector-curvature="0"
       style="fill:#dcdcdc;fill-rule:evenodd;stroke:none" />
    <path
       id="path3"
       d="m 184.893,43.643 c -0.122,0.318 -0.182,15.222 -0.133,33.12 l 0.088,32.544 0.186,-32.847 0.185,-32.847 h 35.766 35.767 v 33.029 33.03 l -35.336,0.182 c -19.435,0.1 -35.571,0.051 -35.858,-0.109 -0.29,-0.162 -0.522,-0.139 -0.522,0.052 0,0.738 2.241,0.787 36.136,0.787 31.314,0 35.04,-0.06 35.554,-0.574 0.586,-0.586 0.927,-64.868 0.352,-66.367 -0.34,-0.884 -71.846,-0.884 -72.185,0 m -84.802,18.278 c -0.775,0.312 -0.655,54.348 0.121,54.646 0.755,0.289 52.836,0.289 53.59,0 0.883,-0.339 0.883,-54.328 0,-54.667 -0.69,-0.264 -53.053,-0.245 -53.711,0.021 m 53.376,27.313 v 26.642 h -26.46 -26.46 l -0.094,-26.277 c -0.052,-14.453 -0.016,-26.484 0.081,-26.736 0.139,-0.364 5.644,-0.44 26.554,-0.365 l 26.379,0.093 v 26.643 m 31.813,36.192 c -0.134,0.134 -0.241,0.421 -0.238,0.638 0.003,0.233 0.126,0.206 0.298,-0.064 0.232,-0.366 7.582,-0.44 35.908,-0.365 19.589,0.052 35.541,-0.028 35.447,-0.179 -0.209,-0.338 -71.077,-0.368 -71.415,-0.03 m 71.834,109.063 c 0,59.617 0.043,83.951 0.094,54.076 0.052,-29.874 0.052,-78.652 0,-108.394 -0.051,-29.742 -0.094,-5.299 -0.094,54.318 m -72.355,-92.457 c -0.09,16.01 -0.05,16.727 0.934,16.727 0.507,0 0.503,-0.056 -0.038,-0.456 -0.559,-0.414 -0.625,-1.916 -0.713,-16.15 l -0.096,-15.693 -0.087,15.572 m -60.583,-4.868 c -0.362,0.23 -0.439,4.944 -0.365,22.348 l 0.094,22.057 21.694,0.095 c 11.932,0.051 21.819,-0.031 21.971,-0.183 0.152,-0.152 -9.57,-0.233 -21.606,-0.18 l -21.882,0.097 0.094,-21.995 0.094,-21.994 21.533,-0.187 21.533,-0.187 -21.351,-0.081 c -11.742,-0.045 -21.557,0.05 -21.809,0.21 m 43.617,15.881 c 0.052,8.663 0.138,18.46 0.192,21.773 0.055,3.312 0.134,-3.586 0.176,-15.329 0.042,-11.743 -0.045,-21.54 -0.192,-21.772 -0.148,-0.232 -0.227,6.666 -0.176,15.328 M 34.31,149.99 c -0.434,0.274 -0.453,0.437 -0.092,0.798 0.25,0.249 0.466,0.379 0.481,0.289 0.016,-0.091 0.083,-0.452 0.151,-0.803 0.141,-0.741 0.164,-0.729 -0.54,-0.284 m 20.977,0.367 c 0.153,0.248 8.244,0.373 24.072,0.373 H 103.2 l 0.22,0.821 c 0.287,1.073 0.287,65.533 0,66.606 l -0.22,0.821 -23.589,0.006 c -14.808,0.003 -23.793,0.139 -24.137,0.364 -0.36,0.235 7.721,0.327 23.645,0.268 21.039,-0.079 24.238,-0.162 24.542,-0.638 0.435,-0.682 0.304,-68.054 -0.133,-68.491 -0.459,-0.46 -48.524,-0.588 -48.241,-0.13 m -19.886,34.497 v 33.398 l 33.486,-0.093 33.485,-0.093 v -33.212 -33.212 l -33.485,-0.093 -33.486,-0.093 v 33.398 m 180.572,-3.832 c -0.054,12.245 0.026,22.263 0.177,22.263 0.15,0 0.273,-10.019 0.273,-22.263 0,-12.245 -0.079,-22.263 -0.177,-22.263 -0.097,0 -0.22,10.018 -0.273,22.263 m -31.08,22.84 c -0.571,1.489 -0.235,47.898 0.352,48.484 0.487,0.487 1.804,0.574 8.759,0.574 h 8.186 v 22.627 22.628 h -8.186 c -6.955,0 -8.272,0.086 -8.759,0.574 -1.084,1.084 -0.822,44.682 0.268,44.682 0.267,0 0.254,-0.145 -0.039,-0.438 -0.674,-0.674 -0.628,-43.476 0.047,-44.036 0.314,-0.26 3.382,-0.437 8.668,-0.501 l 8.183,-0.098 v -22.811 -22.81 l -8.183,-0.098 c -5.286,-0.064 -8.354,-0.241 -8.668,-0.501 -0.675,-0.561 -0.721,-47.741 -0.047,-48.415 0.293,-0.293 0.306,-0.438 0.039,-0.438 -0.219,0 -0.498,0.259 -0.62,0.577 m -72.773,26.135 c -0.337,0.337 -0.421,5.542 -0.354,21.992 l 0.087,21.551 0.186,-21.715 0.187,-21.716 h 21.716 21.715 v 21.898 21.898 h -21.772 c -11.974,0 -21.695,0.123 -21.602,0.274 0.337,0.546 43.058,0.326 43.515,-0.224 0.299,-0.36 0.386,-6.514 0.318,-22.354 l -0.094,-21.856 -21.731,-0.095 c -16.598,-0.071 -21.835,0.01 -22.171,0.347 M 4.745,253.102 c -0.373,0.449 -0.348,0.548 0.137,0.548 0.326,0 0.592,-0.247 0.592,-0.548 0,-0.301 -0.062,-0.547 -0.137,-0.547 -0.076,0 -0.343,0.246 -0.592,0.547 m 49.508,-0.091 c 0.093,0.15 4.225,0.276 9.181,0.279 4.956,0.003 9.217,0.137 9.469,0.297 0.364,0.23 0.439,7.279 0.365,34.027 l -0.093,33.736 -9.358,0.098 c -8.373,0.087 -9.41,0.164 -9.854,0.73 -0.437,0.557 -0.427,0.579 0.081,0.182 0.416,-0.324 3.225,-0.477 10.037,-0.547 l 9.459,-0.098 0.093,-33.902 c 0.067,-24.265 -0.021,-34.039 -0.308,-34.386 -0.442,-0.532 -19.4,-0.946 -19.072,-0.416 m -47.881,1.825 c -0.095,0.251 -0.131,15.155 -0.079,33.12 l 0.094,32.664 15.693,0.116 c 8.632,0.063 23.454,0.002 32.938,-0.135 l 17.245,-0.25 V 287.366 254.38 H 39.405 c -25.951,0 -32.895,0.095 -33.033,0.456 m 84.212,50.711 c -0.565,0.565 -0.639,39.541 -0.076,39.889 0.237,0.146 0.394,-6.615 0.456,-19.595 l 0.094,-19.819 26.237,-0.094 c 19.079,-0.068 26.373,0.019 26.734,0.319 0.407,0.338 0.497,3.874 0.497,19.665 0,17.645 0.051,19.296 0.617,19.755 0.394,0.319 0.521,0.339 0.35,0.055 -0.148,-0.246 -0.302,-9.326 -0.344,-20.178 -0.066,-17.086 -0.149,-19.778 -0.623,-20.077 -0.868,-0.549 -53.391,-0.47 -53.942,0.08 M 4.38,321.306 c 0,0.075 0.246,0.342 0.547,0.592 0.448,0.372 0.547,0.347 0.547,-0.138 0,-0.326 -0.246,-0.592 -0.547,-0.592 -0.301,0 -0.547,0.062 -0.547,0.138 m 198.968,22.398 c 9.57,0.054 25.336,0.054 35.037,0 9.7,-0.054 1.87,-0.098 -17.4,-0.098 -19.27,0 -27.206,0.044 -17.637,0.098"
       inkscape:connector-curvature="0"
       style="fill:#949494;fill-rule:evenodd;stroke:none" />
    <path
       id="path4"
       d="m 185.282,43.672 c -0.551,0.55 -0.278,65.763 0.276,66.073 0.287,0.16 16.423,0.209 35.858,0.109 l 35.336,-0.182 V 76.642 43.613 L 221.139,43.52 c -19.587,-0.051 -35.723,0.017 -35.857,0.152 m 71.198,32.879 -0.093,32.756 -35.196,0.093 c -27.916,0.073 -35.257,-0.002 -35.488,-0.365 -0.349,-0.551 -0.407,-64.647 -0.058,-64.996 0.134,-0.134 16.147,-0.243 35.586,-0.243 h 35.342 l -0.093,32.755 m -71.221,49.572 c -0.675,1.759 -0.224,31.88 0.483,32.258 0.454,0.243 6.061,0.378 15.694,0.378 h 14.987 v 22.263 22.263 h -15.255 c -11.379,0 -15.367,0.111 -15.694,0.438 -0.674,0.674 -0.628,47.854 0.047,48.415 0.314,0.26 3.382,0.437 8.668,0.501 l 8.183,0.098 v 22.81 22.811 l -8.183,0.098 c -5.286,0.064 -8.354,0.241 -8.668,0.501 -0.675,0.56 -0.721,43.362 -0.047,44.036 0.509,0.508 70.208,0.642 71.005,0.136 0.364,-0.231 0.438,-22.241 0.365,-108.844 l -0.092,-108.555 -35.636,-0.093 c -32.259,-0.084 -35.656,-0.038 -35.857,0.486 m 71.22,108.457 -0.092,108.303 -34.997,0.093 c -25.674,0.069 -35.13,-0.017 -35.496,-0.321 -0.413,-0.343 -0.482,-4.108 -0.404,-21.99 l 0.094,-21.577 8.577,-0.183 8.576,-0.182 v -23.176 -23.175 l -8.576,-0.182 -8.577,-0.183 -0.094,-23.682 c -0.068,-17.189 0.019,-23.818 0.318,-24.179 0.336,-0.404 3.248,-0.496 15.697,-0.496 h 15.283 v -22.628 c 0,-12.445 -0.041,-22.661 -0.091,-22.701 -0.05,-0.041 -7.071,-0.164 -15.602,-0.274 l -15.511,-0.2 -0.095,-15.329 c -0.053,-8.43 -0.017,-15.533 0.079,-15.784 0.139,-0.361 7.59,-0.457 35.589,-0.457 h 35.414 L 256.479,234.58 M 124.331,137.47 c -0.134,0.133 -0.243,10.071 -0.243,22.083 v 21.84 l 21.806,-0.095 21.807,-0.094 0.101,-21.168 c 0.055,-11.642 0.011,-21.537 -0.099,-21.989 l -0.199,-0.821 h -21.465 c -11.806,0 -21.574,0.11 -21.708,0.244 m 43.005,21.837 v 21.532 l -21.442,0.095 -21.441,0.094 v -21.721 -21.722 l 21.441,0.095 21.442,0.094 v 21.533 M 34.699,150.216 c 0.421,0.506 0.057,0.889 -0.603,0.635 -0.428,-0.164 -0.507,5.072 -0.516,34.139 -0.01,32.032 0.031,34.317 0.604,34.097 0.461,-0.177 0.557,-0.088 0.387,0.357 -0.16,0.416 -0.071,0.532 0.302,0.389 0.29,-0.112 0.528,-0.35 0.528,-0.529 0,-0.183 4.085,-0.326 9.296,-0.326 8.687,0 9.281,0.042 9.089,0.639 -0.172,0.536 -0.143,0.551 0.181,0.091 0.335,-0.476 3.594,-0.561 24.812,-0.651 l 24.427,-0.103 0.217,-0.809 c 0.284,-1.059 0.283,-65.525 -0.001,-66.584 l -0.217,-0.811 -24.322,-0.101 c -13.376,-0.056 -24.514,-0.227 -24.75,-0.38 -0.718,-0.466 -19.82,-0.518 -19.434,-0.053 m 67.673,34.638 v 33.212 l -33.485,0.093 -33.486,0.093 v -33.398 -33.398 l 33.486,0.093 33.485,0.093 v 33.212 m 9.84,45.526 c -0.096,0.253 -0.133,10.149 -0.08,21.992 l 0.094,21.533 h 21.716 21.715 v -21.898 -21.898 l -21.634,-0.094 c -17.114,-0.074 -21.672,0.002 -21.811,0.365 m 43.174,21.536 -0.094,21.624 h -21.35 -21.351 l -0.094,-21.168 c -0.053,-11.642 -0.017,-21.373 0.079,-21.624 0.137,-0.358 4.784,-0.456 21.54,-0.456 h 21.364 l -0.094,21.624 M 5.474,253.011 c 0,0.351 -0.205,0.639 -0.456,0.639 -0.361,0 -0.456,6.995 -0.456,33.759 0,28.3 0.081,33.759 0.499,33.759 0.304,0 0.43,0.261 0.324,0.669 -0.107,0.407 0.019,0.669 0.322,0.669 0.274,0 0.497,-0.219 0.497,-0.487 0,-0.4 4.204,-0.486 23.762,-0.486 22.181,0 23.746,0.041 23.524,0.618 -0.222,0.579 -0.194,0.579 0.439,0.006 0.589,-0.532 1.875,-0.624 9.961,-0.709 l 9.285,-0.098 0.093,-33.736 c 0.074,-26.748 -0.001,-33.797 -0.365,-34.027 -0.252,-0.16 -4.49,-0.294 -9.418,-0.297 -5.525,-0.003 -9.1,-0.146 -9.327,-0.373 -0.749,-0.748 -48.684,-0.656 -48.684,0.094 m 66.789,34.355 v 32.985 l -17.245,0.25 c -9.484,0.137 -24.306,0.198 -32.938,0.135 L 6.387,320.62 6.293,287.956 c -0.052,-17.965 -0.016,-32.869 0.079,-33.12 0.138,-0.361 7.082,-0.456 33.033,-0.456 h 32.858 v 32.986 m 17.868,58.142 c -0.051,0.969 0.059,13.049 0.121,13.388 0.042,0.226 -0.129,0.37 -0.38,0.319 -0.251,-0.05 -0.456,0.073 -0.456,0.274 0,0.201 0.174,0.365 0.387,0.365 0.212,0 0.269,0.19 0.126,0.421 -0.156,0.252 -0.101,0.323 0.135,0.177 0.218,-0.135 0.5,-0.078 0.626,0.126 0.283,0.458 53.417,0.51 54.138,0.052 0.6,-0.38 0.632,-14.586 0.034,-15.184 -0.246,-0.246 -0.332,2.039 -0.26,6.929 l 0.106,7.297 -26.916,-0.096 -26.916,-0.096 v -6.908 c 0,-4.212 -0.143,-6.997 -0.365,-7.134 -0.201,-0.124 -0.372,-0.093 -0.38,0.07 m 54.212,14.711 c 0.15,0.242 -8.845,0.363 -26.712,0.359 -17.526,-0.003 -26.746,-0.129 -26.39,-0.359 0.76,-0.492 52.798,-0.492 53.102,0"
       inkscape:connector-curvature="0"
       style="fill:#8b8484;fill-rule:evenodd;stroke:none" />
  </g>
</svg>
