<svg id="svg" version="1.1" xmlns="http://www.w3.org/2000/svg" xmlns:xlink="http://www.w3.org/1999/xlink" width="400" height="364.7558386411889" viewBox="0, 0, 400,364.7558386411889"><g id="svgg"><path id="path0" d="M185.645 44.039 C 185.296 44.388,185.354 108.484,185.703 109.035 C 185.934 109.398,193.275 109.473,221.191 109.400 L 256.387 109.307 256.480 76.551 L 256.573 43.796 221.231 43.796 C 201.792 43.796,185.779 43.905,185.645 44.039 M185.568 126.734 C 185.472 126.985,185.436 134.088,185.489 142.518 L 185.584 157.847 201.095 158.047 C 209.626 158.157,216.647 158.280,216.697 158.321 C 216.747 158.361,216.788 168.577,216.788 181.022 L 216.788 203.650 201.505 203.650 C 189.056 203.650,186.144 203.742,185.808 204.146 C 185.509 204.507,185.422 211.136,185.490 228.325 L 185.584 252.007 194.161 252.190 L 202.737 252.372 202.737 275.547 L 202.737 298.723 194.161 298.905 L 185.584 299.088 185.490 320.665 C 185.412 338.547,185.481 342.312,185.894 342.655 C 186.260 342.959,195.716 343.045,221.390 342.976 L 256.387 342.883 256.479 234.580 L 256.571 126.277 221.157 126.277 C 193.158 126.277,185.707 126.373,185.568 126.734 M124.453 159.307 L 124.453 181.028 145.894 180.934 L 167.336 180.839 167.336 159.307 L 167.336 137.774 145.894 137.680 L 124.453 137.585 124.453 159.307 M39.894 149.908 C 42.465 149.971,46.570 149.971,49.018 149.907 C 51.465 149.844,49.361 149.793,44.343 149.793 C 39.325 149.793,37.323 149.845,39.894 149.908 M35.113 219.539 C 34.702 220.006,35.833 220.073,44.107 220.073 C 52.183 220.073,53.602 219.993,53.782 219.526 C 54.093 218.714,35.829 218.728,35.113 219.539 M112.576 230.748 C 112.480 230.999,112.444 240.730,112.497 252.372 L 112.591 273.540 133.942 273.540 L 155.292 273.540 155.386 251.916 L 155.480 230.292 134.116 230.292 C 117.360 230.292,112.713 230.390,112.576 230.748 M18.001 252.463 C 24.589 252.519,35.265 252.519,41.724 252.463 C 48.183 252.407,42.792 252.362,29.745 252.362 C 16.697 252.362,11.412 252.408,18.001 252.463 M4.046 287.409 C 4.033 309.447,4.150 321.158,4.380 320.803 C 4.825 320.113,4.825 255.234,4.380 254.197 C 4.201 253.783,4.057 268.139,4.046 287.409 M6.204 322.083 C 6.204 322.835,53.308 322.741,53.558 321.989 C 53.679 321.627,48.798 321.533,29.957 321.533 C 9.036 321.533,6.204 321.598,6.204 322.083 M89.690 346.197 C 89.290 346.598,89.353 359.042,89.756 359.291 C 89.943 359.406,90.148 359.375,90.212 359.221 C 90.458 358.630,89.949 345.937,89.690 346.197 M145.408 352.737 C 145.408 356.551,145.462 358.062,145.528 356.094 C 145.594 354.127,145.593 351.006,145.527 349.160 C 145.461 347.314,145.407 348.923,145.408 352.737 M91.258 360.200 C 90.967 360.385,90.597 360.455,90.437 360.356 C 90.277 360.257,90.146 360.309,90.146 360.471 C 90.146 360.634,102.449 360.766,117.487 360.766 C 139.319 360.766,144.752 360.674,144.450 360.310 C 143.987 359.753,92.136 359.646,91.258 360.200 " stroke="none" fill="#5c5554" fill-rule="evenodd"></path><path id="path1" d="M54.006 19.184 C 53.428 20.704,53.527 149.611,54.106 149.832 C 54.357 149.928,65.511 150.046,78.893 150.095 C 92.275 150.143,103.361 150.319,103.528 150.487 C 103.965 150.924,104.096 218.296,103.661 218.978 C 103.357 219.454,100.140 219.537,78.937 219.613 C 65.531 219.662,54.357 219.780,54.106 219.876 C 53.334 220.171,53.453 252.401,54.227 252.698 C 54.544 252.820,58.877 252.920,63.854 252.920 C 71.034 252.920,72.988 253.022,73.315 253.416 C 73.615 253.778,73.701 263.067,73.633 287.813 L 73.540 321.715 64.081 321.813 C 57.849 321.877,54.456 322.048,54.136 322.314 C 53.343 322.972,53.430 345.823,54.227 346.129 C 55.410 346.583,89.244 346.376,89.708 345.912 C 90.038 345.583,90.146 340.600,90.146 325.730 C 90.146 310.860,90.254 305.877,90.584 305.547 C 91.135 304.997,143.658 304.918,144.526 305.467 C 145.000 305.766,145.083 308.450,145.149 325.464 C 145.191 336.272,145.331 345.393,145.462 345.733 C 145.718 346.402,388.275 346.716,389.326 346.049 C 389.798 345.749,390.050 19.343,389.579 18.581 C 389.455 18.381,322.333 18.248,221.867 18.248 L 54.361 18.248 54.006 19.184 M257.078 43.643 C 257.653 45.142,257.312 109.424,256.726 110.010 C 256.052 110.684,186.459 110.895,185.401 110.227 C 184.849 109.878,184.319 46.062,184.850 43.887 L 185.050 43.066 220.953 43.066 C 253.355 43.066,256.878 43.122,257.078 43.643 M153.802 61.900 C 154.685 62.239,154.685 116.228,153.802 116.567 C 153.048 116.856,100.967 116.856,100.212 116.567 C 99.436 116.269,99.316 62.233,100.091 61.921 C 100.749 61.655,153.112 61.636,153.802 61.900 M100.534 62.863 C 100.437 63.115,100.401 75.146,100.453 89.599 L 100.547 115.876 127.007 115.876 L 153.467 115.876 153.467 89.234 L 153.467 62.591 127.088 62.498 C 106.178 62.423,100.673 62.499,100.534 62.863 M153.102 89.234 L 153.102 115.511 127.007 115.511 L 100.912 115.511 100.818 89.599 C 100.766 75.347,100.802 63.480,100.899 63.227 C 101.038 62.864,106.470 62.788,127.088 62.863 L 153.102 62.956 153.102 89.234 M256.921 125.888 C 257.421 126.822,257.442 342.275,256.942 343.066 C 256.638 343.546,252.242 343.613,220.985 343.613 C 189.729 343.613,185.333 343.546,185.029 343.066 C 184.365 342.016,184.573 299.421,185.245 298.749 C 185.732 298.261,187.049 298.175,194.004 298.175 L 202.190 298.175 202.190 275.547 L 202.190 252.920 194.004 252.920 C 187.049 252.920,185.732 252.833,185.245 252.346 C 184.617 251.718,184.351 204.719,184.970 203.745 C 185.189 203.400,188.876 203.270,200.566 203.197 L 215.876 203.102 215.970 180.931 L 216.064 158.759 200.589 158.759 C 186.815 158.759,185.090 158.696,184.893 158.182 C 184.516 157.198,184.642 127.133,185.027 126.119 L 185.383 125.182 220.964 125.182 C 255.767 125.182,256.552 125.198,256.921 125.888 M167.675 137.435 C 168.445 138.205,168.557 180.097,167.792 181.139 C 167.370 181.713,165.711 181.753,145.620 181.664 L 123.905 181.569 123.811 159.512 C 123.737 142.108,123.814 137.394,124.176 137.164 C 125.153 136.543,167.044 136.804,167.675 137.435 M156.116 251.601 C 156.184 267.441,156.097 273.595,155.798 273.955 C 155.035 274.874,112.552 274.671,112.057 273.747 C 111.479 272.667,111.539 230.578,112.120 229.997 C 112.456 229.660,117.693 229.579,134.291 229.650 L 156.022 229.745 156.116 251.601 M91.044 306.296 C 90.948 306.547,90.912 318.577,90.964 333.029 L 91.058 359.307 117.495 359.400 C 138.403 359.474,143.993 359.398,144.223 359.035 C 144.728 358.239,144.596 306.786,144.088 306.277 C 143.437 305.627,91.292 305.644,91.044 306.296 M143.544 306.478 C 143.630 306.629,143.763 318.495,143.839 332.847 L 143.978 358.942 117.701 358.942 L 91.423 358.942 91.329 333.029 C 91.277 318.777,91.313 306.911,91.409 306.661 C 91.605 306.147,143.251 305.966,143.544 306.478 " stroke="none" fill="#b4c49c" fill-rule="evenodd"></path><path id="path2" d="M53.662 18.954 C 53.405 19.435,53.313 40.411,53.373 84.739 L 53.462 149.818 53.647 84.489 C 53.749 48.558,53.965 18.955,54.127 18.704 C 54.290 18.453,54.337 18.248,54.231 18.248 C 54.126 18.248,53.870 18.566,53.662 18.954 M389.962 182.299 C 389.962 271.624,390.004 308.112,390.055 263.383 C 390.106 218.654,390.106 145.570,390.055 100.974 C 390.004 56.378,389.962 92.974,389.962 182.299 M100.899 63.227 C 100.802 63.480,100.766 75.347,100.818 89.599 L 100.912 115.511 127.007 115.511 L 153.102 115.511 153.102 89.234 L 153.102 62.956 127.088 62.863 C 106.470 62.788,101.038 62.864,100.899 63.227 M53.452 236.131 C 53.452 245.064,53.500 248.718,53.558 244.252 C 53.616 239.786,53.616 232.477,53.558 228.011 C 53.500 223.545,53.452 227.199,53.452 236.131 M91.409 306.661 C 91.313 306.911,91.277 318.777,91.329 333.029 L 91.423 358.942 117.701 358.942 L 143.978 358.942 143.839 332.847 C 143.763 318.495,143.630 306.629,143.544 306.478 C 143.251 305.966,91.605 306.147,91.409 306.661 M53.447 333.942 C 53.447 340.265,53.497 342.851,53.558 339.690 C 53.618 336.528,53.618 331.355,53.558 328.193 C 53.497 325.032,53.447 327.619,53.447 333.942 " stroke="none" fill="#dcdcdc" fill-rule="evenodd"></path><path id="path3" d="M184.893 43.643 C 184.771 43.961,184.711 58.865,184.760 76.763 L 184.848 109.307 185.034 76.460 L 185.219 43.613 220.985 43.613 L 256.752 43.613 256.752 76.642 L 256.752 109.672 221.416 109.854 C 201.981 109.954,185.845 109.905,185.558 109.745 C 185.268 109.583,185.036 109.606,185.036 109.797 C 185.036 110.535,187.277 110.584,221.172 110.584 C 252.486 110.584,256.212 110.524,256.726 110.010 C 257.312 109.424,257.653 45.142,257.078 43.643 C 256.738 42.759,185.232 42.759,184.893 43.643 M100.091 61.921 C 99.316 62.233,99.436 116.269,100.212 116.567 C 100.967 116.856,153.048 116.856,153.802 116.567 C 154.685 116.228,154.685 62.239,153.802 61.900 C 153.112 61.636,100.749 61.655,100.091 61.921 M153.467 89.234 L 153.467 115.876 127.007 115.876 L 100.547 115.876 100.453 89.599 C 100.401 75.146,100.437 63.115,100.534 62.863 C 100.673 62.499,106.178 62.423,127.088 62.498 L 153.467 62.591 153.467 89.234 M185.280 125.426 C 185.146 125.560,185.039 125.847,185.042 126.064 C 185.045 126.297,185.168 126.270,185.340 126.000 C 185.572 125.634,192.922 125.560,221.248 125.635 C 240.837 125.687,256.789 125.607,256.695 125.456 C 256.486 125.118,185.618 125.088,185.280 125.426 M257.114 234.489 C 257.114 294.106,257.157 318.440,257.208 288.565 C 257.260 258.691,257.260 209.913,257.208 180.171 C 257.157 150.429,257.114 174.872,257.114 234.489 M184.759 142.032 C 184.669 158.042,184.709 158.759,185.693 158.759 C 186.200 158.759,186.196 158.703,185.655 158.303 C 185.096 157.889,185.030 156.387,184.942 142.153 L 184.846 126.460 184.759 142.032 M124.176 137.164 C 123.814 137.394,123.737 142.108,123.811 159.512 L 123.905 181.569 145.599 181.664 C 157.531 181.715,167.418 181.633,167.570 181.481 C 167.722 181.329,158.000 181.248,145.964 181.301 L 124.082 181.398 124.176 159.403 L 124.270 137.409 145.803 137.222 L 167.336 137.035 145.985 136.954 C 134.243 136.909,124.428 137.004,124.176 137.164 M167.793 153.045 C 167.845 161.708,167.931 171.505,167.985 174.818 C 168.040 178.130,168.119 171.232,168.161 159.489 C 168.203 147.746,168.116 137.949,167.969 137.717 C 167.821 137.485,167.742 144.383,167.793 153.045 M34.310 149.990 C 33.876 150.264,33.857 150.427,34.218 150.788 C 34.468 151.037,34.684 151.167,34.699 151.077 C 34.715 150.986,34.782 150.625,34.850 150.274 C 34.991 149.533,35.014 149.545,34.310 149.990 M55.287 150.357 C 55.440 150.605,63.531 150.730,79.359 150.730 L 103.200 150.730 103.420 151.551 C 103.707 152.624,103.707 217.084,103.420 218.157 L 103.200 218.978 79.611 218.984 C 64.803 218.987,55.818 219.123,55.474 219.348 C 55.114 219.583,63.195 219.675,79.119 219.616 C 100.158 219.537,103.357 219.454,103.661 218.978 C 104.096 218.296,103.965 150.924,103.528 150.487 C 103.069 150.027,55.004 149.899,55.287 150.357 M35.401 184.854 L 35.401 218.252 68.887 218.159 L 102.372 218.066 102.372 184.854 L 102.372 151.642 68.887 151.549 L 35.401 151.456 35.401 184.854 M215.973 181.022 C 215.919 193.267,215.999 203.285,216.150 203.285 C 216.300 203.285,216.423 193.266,216.423 181.022 C 216.423 168.777,216.344 158.759,216.246 158.759 C 216.149 158.759,216.026 168.777,215.973 181.022 M184.893 203.862 C 184.322 205.351,184.658 251.760,185.245 252.346 C 185.732 252.833,187.049 252.920,194.004 252.920 L 202.190 252.920 202.190 275.547 L 202.190 298.175 194.004 298.175 C 187.049 298.175,185.732 298.261,185.245 298.749 C 184.161 299.833,184.423 343.431,185.513 343.431 C 185.780 343.431,185.767 343.286,185.474 342.993 C 184.800 342.319,184.846 299.517,185.521 298.957 C 185.835 298.697,188.903 298.520,194.189 298.456 L 202.372 298.358 202.372 275.547 L 202.372 252.737 194.189 252.639 C 188.903 252.575,185.835 252.398,185.521 252.138 C 184.846 251.577,184.800 204.397,185.474 203.723 C 185.767 203.430,185.780 203.285,185.513 203.285 C 185.294 203.285,185.015 203.544,184.893 203.862 M112.120 229.997 C 111.783 230.334,111.699 235.539,111.766 251.989 L 111.853 273.540 112.039 251.825 L 112.226 230.109 133.942 230.109 L 155.657 230.109 155.657 252.007 L 155.657 273.905 133.885 273.905 C 121.911 273.905,112.190 274.028,112.283 274.179 C 112.620 274.725,155.341 274.505,155.798 273.955 C 156.097 273.595,156.184 267.441,156.116 251.601 L 156.022 229.745 134.291 229.650 C 117.693 229.579,112.456 229.660,112.120 229.997 M4.745 253.102 C 4.372 253.551,4.397 253.650,4.882 253.650 C 5.208 253.650,5.474 253.403,5.474 253.102 C 5.474 252.801,5.412 252.555,5.337 252.555 C 5.261 252.555,4.994 252.801,4.745 253.102 M54.253 253.011 C 54.346 253.161,58.478 253.287,63.434 253.290 C 68.390 253.293,72.651 253.427,72.903 253.587 C 73.267 253.817,73.342 260.866,73.268 287.614 L 73.175 321.350 63.817 321.448 C 55.444 321.535,54.407 321.612,53.963 322.178 C 53.526 322.735,53.536 322.757,54.044 322.360 C 54.460 322.036,57.269 321.883,64.081 321.813 L 73.540 321.715 73.633 287.813 C 73.700 263.548,73.612 253.774,73.325 253.427 C 72.883 252.895,53.925 252.481,54.253 253.011 M6.372 254.836 C 6.277 255.087,6.241 269.991,6.293 287.956 L 6.387 320.620 22.080 320.736 C 30.712 320.799,45.534 320.738,55.018 320.601 L 72.263 320.351 72.263 287.366 L 72.263 254.380 39.405 254.380 C 13.454 254.380,6.510 254.475,6.372 254.836 M90.584 305.547 C 90.019 306.112,89.945 345.088,90.508 345.436 C 90.745 345.582,90.902 338.821,90.964 325.841 L 91.058 306.022 117.295 305.928 C 136.374 305.860,143.668 305.947,144.029 306.247 C 144.436 306.585,144.526 310.121,144.526 325.912 C 144.526 343.557,144.577 345.208,145.143 345.667 C 145.537 345.986,145.664 346.006,145.493 345.722 C 145.345 345.476,145.191 336.396,145.149 325.544 C 145.083 308.458,145.000 305.766,144.526 305.467 C 143.658 304.918,91.135 304.997,90.584 305.547 M4.380 321.306 C 4.380 321.381,4.626 321.648,4.927 321.898 C 5.375 322.270,5.474 322.245,5.474 321.760 C 5.474 321.434,5.228 321.168,4.927 321.168 C 4.626 321.168,4.380 321.230,4.380 321.306 M203.348 343.704 C 212.918 343.758,228.684 343.758,238.385 343.704 C 248.085 343.650,240.255 343.606,220.985 343.606 C 201.715 343.606,193.779 343.650,203.348 343.704 " stroke="none" fill="#949494" fill-rule="evenodd"></path><path id="path4" d="M185.282 43.672 C 184.731 44.222,185.004 109.435,185.558 109.745 C 185.845 109.905,201.981 109.954,221.416 109.854 L 256.752 109.672 256.752 76.642 L 256.752 43.613 221.139 43.520 C 201.552 43.469,185.416 43.537,185.282 43.672 M256.480 76.551 L 256.387 109.307 221.191 109.400 C 193.275 109.473,185.934 109.398,185.703 109.035 C 185.354 108.484,185.296 44.388,185.645 44.039 C 185.779 43.905,201.792 43.796,221.231 43.796 L 256.573 43.796 256.480 76.551 M185.259 126.123 C 184.584 127.882,185.035 158.003,185.742 158.381 C 186.196 158.624,191.803 158.759,201.436 158.759 L 216.423 158.759 216.423 181.022 L 216.423 203.285 201.168 203.285 C 189.789 203.285,185.801 203.396,185.474 203.723 C 184.800 204.397,184.846 251.577,185.521 252.138 C 185.835 252.398,188.903 252.575,194.189 252.639 L 202.372 252.737 202.372 275.547 L 202.372 298.358 194.189 298.456 C 188.903 298.520,185.835 298.697,185.521 298.957 C 184.846 299.517,184.800 342.319,185.474 342.993 C 185.983 343.501,255.682 343.635,256.479 343.129 C 256.843 342.898,256.917 320.888,256.844 234.285 L 256.752 125.730 221.116 125.637 C 188.857 125.553,185.460 125.599,185.259 126.123 M256.479 234.580 L 256.387 342.883 221.390 342.976 C 195.716 343.045,186.260 342.959,185.894 342.655 C 185.481 342.312,185.412 338.547,185.490 320.665 L 185.584 299.088 194.161 298.905 L 202.737 298.723 202.737 275.547 L 202.737 252.372 194.161 252.190 L 185.584 252.007 185.490 228.325 C 185.422 211.136,185.509 204.507,185.808 204.146 C 186.144 203.742,189.056 203.650,201.505 203.650 L 216.788 203.650 216.788 181.022 C 216.788 168.577,216.747 158.361,216.697 158.321 C 216.647 158.280,209.626 158.157,201.095 158.047 L 185.584 157.847 185.489 142.518 C 185.436 134.088,185.472 126.985,185.568 126.734 C 185.707 126.373,193.158 126.277,221.157 126.277 L 256.571 126.277 256.479 234.580 M124.331 137.470 C 124.197 137.603,124.088 147.541,124.088 159.553 L 124.088 181.393 145.894 181.298 L 167.701 181.204 167.802 160.036 C 167.857 148.394,167.813 138.499,167.703 138.047 L 167.504 137.226 146.039 137.226 C 134.233 137.226,124.465 137.336,124.331 137.470 M167.336 159.307 L 167.336 180.839 145.894 180.934 L 124.453 181.028 124.453 159.307 L 124.453 137.585 145.894 137.680 L 167.336 137.774 167.336 159.307 M34.699 150.216 C 35.120 150.722,34.756 151.105,34.096 150.851 C 33.668 150.687,33.589 155.923,33.580 184.990 C 33.570 217.022,33.611 219.307,34.184 219.087 C 34.645 218.910,34.741 218.999,34.571 219.444 C 34.411 219.860,34.500 219.976,34.873 219.833 C 35.163 219.721,35.401 219.483,35.401 219.304 C 35.401 219.121,39.486 218.978,44.697 218.978 C 53.384 218.978,53.978 219.020,53.786 219.617 C 53.614 220.153,53.643 220.168,53.967 219.708 C 54.302 219.232,57.561 219.147,78.779 219.057 L 103.206 218.954 103.423 218.145 C 103.707 217.086,103.706 152.620,103.422 151.561 L 103.205 150.750 78.883 150.649 C 65.507 150.593,54.369 150.422,54.133 150.269 C 53.415 149.803,34.313 149.751,34.699 150.216 M102.372 184.854 L 102.372 218.066 68.887 218.159 L 35.401 218.252 35.401 184.854 L 35.401 151.456 68.887 151.549 L 102.372 151.642 102.372 184.854 M112.212 230.380 C 112.116 230.633,112.079 240.529,112.132 252.372 L 112.226 273.905 133.942 273.905 L 155.657 273.905 155.657 252.007 L 155.657 230.109 134.023 230.015 C 116.909 229.941,112.351 230.017,112.212 230.380 M155.386 251.916 L 155.292 273.540 133.942 273.540 L 112.591 273.540 112.497 252.372 C 112.444 240.730,112.480 230.999,112.576 230.748 C 112.713 230.390,117.360 230.292,134.116 230.292 L 155.480 230.292 155.386 251.916 M5.474 253.011 C 5.474 253.362,5.269 253.650,5.018 253.650 C 4.657 253.650,4.562 260.645,4.562 287.409 C 4.562 315.709,4.643 321.168,5.061 321.168 C 5.365 321.168,5.491 321.429,5.385 321.837 C 5.278 322.244,5.404 322.506,5.707 322.506 C 5.981 322.506,6.204 322.287,6.204 322.019 C 6.204 321.619,10.408 321.533,29.966 321.533 C 52.147 321.533,53.712 321.574,53.490 322.151 C 53.268 322.730,53.296 322.730,53.929 322.157 C 54.518 321.625,55.804 321.533,63.890 321.448 L 73.175 321.350 73.268 287.614 C 73.342 260.866,73.267 253.817,72.903 253.587 C 72.651 253.427,68.413 253.293,63.485 253.290 C 57.960 253.287,54.385 253.144,54.158 252.917 C 53.409 252.169,5.474 252.261,5.474 253.011 M72.263 287.366 L 72.263 320.351 55.018 320.601 C 45.534 320.738,30.712 320.799,22.080 320.736 L 6.387 320.620 6.293 287.956 C 6.241 269.991,6.277 255.087,6.372 254.836 C 6.510 254.475,13.454 254.380,39.405 254.380 L 72.263 254.380 72.263 287.366 M90.131 345.508 C 90.080 346.477,90.190 358.557,90.252 358.896 C 90.294 359.122,90.123 359.266,89.872 359.215 C 89.621 359.165,89.416 359.288,89.416 359.489 C 89.416 359.690,89.590 359.854,89.803 359.854 C 90.015 359.854,90.072 360.044,89.929 360.275 C 89.773 360.527,89.828 360.598,90.064 360.452 C 90.282 360.317,90.564 360.374,90.690 360.578 C 90.973 361.036,144.107 361.088,144.828 360.630 C 145.428 360.250,145.460 346.044,144.862 345.446 C 144.616 345.200,144.530 347.485,144.602 352.375 L 144.708 359.672 117.792 359.576 L 90.876 359.480 90.876 352.572 C 90.876 348.360,90.733 345.575,90.511 345.438 C 90.310 345.314,90.139 345.345,90.131 345.508 M144.343 360.219 C 144.493 360.461,135.498 360.582,117.631 360.578 C 100.105 360.575,90.885 360.449,91.241 360.219 C 92.001 359.727,144.039 359.727,144.343 360.219 " stroke="none" fill="#8b8484" fill-rule="evenodd"></path></g></svg>