<svg width="36" height="34" viewBox="0 0 31 30" fill="#0a66c2"><path d="M28.547 0H2.222C1.026 0 0 1 0 2.167v25.666C0 29 1.026 30 2.222 30h26.154c1.197 0 2.222-1 2.222-2.167V2.167C30.77 1 29.744 0 28.547 0zM9.06 25.5H4.615V11.167h4.616V25.5H9.06zM6.838 9.333c-1.539 0-2.564-1.166-2.564-2.666s1.196-2.5 2.564-2.5c1.538 0 2.564 1.166 2.564 2.5.17 1.5-1.026 2.666-2.564 2.666zM26.154 25.5h-4.616v-7c0-1.667 0-3.833-2.393-3.833S16.41 16.5 16.41 18.333v7h-4.444V11.167h4.444v2c.684-1.167 2.052-2.334 4.274-2.334 4.615 0 5.47 3 5.47 6.834V25.5z"/></svg>